<svg xmlns="http://www.w3.org/2000/svg" width="30" height="30">
  <path d="M -1 0 L 32 0 L 32 31 L -1 31 Z" fill="rgb(64, 224, 208)"></path>
  <path d="M 11.036 17.723 L 11.036 11.761 L 10.164 11.761 C 9.519 11.761 9 12.313 9 12.988 L 9 21.049 C 8.999 21.372 9.121 21.683 9.34 21.912 C 9.558 22.142 9.854 22.27 10.164 22.27 L 17.859 22.27 C 18.503 22.27 19.033 21.724 19.033 21.049 L 19.033 20.168 L 13.37 20.168 C 12.09 20.169 11.036 19.064 11.036 17.723 Z" fill="rgb(255, 255, 255)"></path>
  <path d="M 20.834 8.27 L 13.138 8.27 C 12.494 8.27 11.967 8.817 11.967 9.492 L 11.967 17.553 C 11.969 18.229 12.492 18.778 13.138 18.779 L 20.834 18.779 C 21.478 18.779 22 18.229 22 17.553 L 22 9.492 C 22 9.168 21.877 8.857 21.659 8.628 C 21.44 8.399 21.143 8.27 20.834 8.27 Z M 20.675 16.876 C 20.611 16.999 20.487 17.075 20.353 17.074 L 13.759 17.074 C 13.643 17.074 13.534 17.019 13.465 16.922 C 13.396 16.825 13.375 16.7 13.408 16.584 L 14.351 13.315 C 14.413 13.1 14.587 12.941 14.799 12.905 C 15.011 12.869 15.224 12.962 15.348 13.145 L 16.667 15.086 C 16.844 15.348 17.188 15.412 17.441 15.232 L 18.656 14.368 C 18.78 14.279 18.934 14.247 19.082 14.278 C 19.23 14.309 19.36 14.401 19.442 14.534 L 20.66 16.485 C 20.733 16.604 20.739 16.752 20.675 16.876 Z" fill="rgb(255, 255, 255)"></path>
</svg>
