<svg width="30" height="30" viewBox="0 0 30 30" fill="none" xmlns="http://www.w3.org/2000/svg">
  <path d="M0 0H30V30H0V0Z" fill="#00CCDD" />
  <path
    d="M15 6C18.866 6 22 9.134 22 13C22 17.4822 18.0897 21.4091 16.1142 23.107C15.4658 23.6643 14.5342 23.6643 13.8858 23.107C11.9103 21.4091 8 17.4822 8 13C8 9.134 11.134 6 15 6ZM12 13C12 14.657 13.343 16 15 16C16.657 16 18 14.657 18 13C18 11.343 16.657 10 15 10C13.343 10 12 11.343 12 13Z"
    fill="white" fill-opacity="0.3" stroke="white" stroke-width="2.2" stroke-linecap="round"
    stroke-linejoin="round" />
</svg>
  