<svg xmlns="http://www.w3.org/2000/svg" width="30" height="30">
  <rect width="30" height="30" fill="white" rx="8" ry="8"/>
  <path d="M 18.578 18.863 C 17.338 18.863 16.333 17.904 16.333 16.722 C 16.333 15.539 17.338 14.581 18.578 14.581 C 19.817 14.581 20.821 15.539 20.821 16.722 C 20.821 17.904 19.817 18.863 18.578 18.863 Z M 19.249 12.6 L 19.249 10.696 C 19.77 10.461 20.135 9.957 20.135 9.373 L 20.135 9.33 C 20.135 8.524 19.445 7.866 18.601 7.866 L 18.554 7.866 C 17.71 7.866 17.019 8.525 17.019 9.33 L 17.019 9.373 C 17.019 9.957 17.385 10.461 17.906 10.696 L 17.906 12.6 C 17.153 12.709 16.44 13.008 15.836 13.469 L 10.356 9.4 C 10.395 9.266 10.415 9.127 10.417 8.988 C 10.418 8.077 9.645 7.336 8.689 7.334 C 7.733 7.334 6.956 8.073 6.955 8.984 C 6.955 9.897 7.728 10.638 8.685 10.638 C 8.996 10.638 9.284 10.554 9.537 10.417 L 14.928 14.419 C 14.455 15.095 14.202 15.899 14.201 16.722 C 14.201 17.614 14.497 18.438 14.995 19.117 L 13.356 20.681 C 13.224 20.641 13.087 20.62 12.95 20.618 C 12.164 20.618 11.528 21.226 11.528 21.976 C 11.528 22.726 12.164 23.334 12.95 23.334 C 13.736 23.334 14.373 22.726 14.373 21.976 C 14.373 21.84 14.345 21.712 14.307 21.588 L 15.928 20.041 C 16.697 20.601 17.626 20.901 18.578 20.899 C 20.995 20.899 22.955 19.029 22.955 16.722 C 22.955 14.634 21.348 12.91 19.251 12.6 Z" fill="rgb(0, 0, 0)"></path>
</svg>
