<svg xmlns="http://www.w3.org/2000/svg" width="30" height="30" fill="none" overflow="visible"><g><path d="M 0 0 L 30 0 L 30 30 L 0 30 Z" fill="rgb(12, 41, 33)"></path><path d="M 20.703 18.698 C 24.156 17.052 26.122 12.818 24.047 8.523 C 22.92 6.19 20.495 4.75 17.89 4.75 L 12.15 4.75 C 8.08 4.75 4.77 8.04 4.77 12.083 C 4.77 18.465 11.632 24.133 11.924 24.372 L 12.388 24.75 L 24.896 24.75 Z M 13.51 17.581 C 14.385 19.638 15.359 21.181 15.359 21.181 L 12.988 23.083 C 12.988 23.083 6.447 17.75 6.447 12.083 C 6.447 8.954 9 6.417 12.15 6.417 C 15.299 6.417 17.852 8.954 17.852 12.083 C 17.852 14.746 16.001 16.974 13.51 17.581 Z" fill="rgb(233,198,255)"></path></g></svg>