<?xml version="1.0" encoding="UTF-8"?>
<svg version="1.1" xmlns="http://www.w3.org/2000/svg" width="32" height="32">
<path d="M0 0 C0.80759766 -0.020625 1.61519531 -0.04125 2.44726562 -0.0625 C7.15963021 -0.09337544 10.43326202 0.07498731 14.1875 3.25 C16.88815226 7.26005941 16.8851196 11.57757104 16.1875 16.25 C14.1875 19.625 14.1875 19.625 12.1875 22.25 C12.1875 26.16912822 13.7599614 27.29143734 16.1875 30.25 C16.1875 30.91 16.1875 31.57 16.1875 32.25 C12.83425035 32.45504349 9.48262597 32.57818195 6.125 32.6875 C5.18205078 32.74615234 4.23910156 32.80480469 3.26757812 32.86523438 C-3.64902953 33.03393212 -3.64902953 33.03393212 -6.97241211 30.79467773 C-12.41556135 25.46088857 -15.93554955 19.83851182 -16.375 12.125 C-16.17551458 6.94635849 -14.5595142 4.72937033 -10.8125 1.25 C-7.44936091 -0.43156955 -3.69483413 0.02325623 0 0 Z M-10.8125 6.25 C-13.22130452 9.86320678 -13.3663242 10.9776419 -12.8125 15.25 C-10.73288475 20.02234416 -8.1281733 25.18726411 -3.8125 28.25 C-1.59391747 28.11358623 -1.59391747 28.11358623 0.1875 27.25 C-0.080625 26.198125 -0.34875 25.14625 -0.625 24.0625 C-0.686875 22.804375 -0.74875 21.54625 -0.8125 20.25 C0.8329378 18.56237149 2.50038577 16.8959651 4.1875 15.25 C4.81877485 11.25192592 4.86667484 9.24264015 2.5625 5.875 C-2.41358336 2.47031139 -6.08350245 2.57189079 -10.8125 6.25 Z " fill="#E8C6FE" transform="translate(15.8125,-0.25)"/>
</svg>
