<svg xmlns="http://www.w3.org/2000/svg" xmlns:xlink="http://www.w3.org/1999/xlink" viewBox="0 0 54 53"><path d="M 42.222 36.961 C 51.372 32.599 56.583 21.38 51.085 9.999 C 48.097 3.815 41.671 0 34.767 0 L 19.556 0 C 8.772 0 0 8.718 0 19.433 C 0 36.344 18.185 51.366 18.958 51.998 L 20.188 53 L 53.333 53 Z M 23.16 34.002 C 25.479 39.454 28.061 43.543 28.061 43.543 L 21.778 48.583 C 21.778 48.583 4.444 34.45 4.444 19.433 C 4.444 11.14 11.21 4.417 19.556 4.417 C 27.901 4.417 34.667 11.14 34.667 19.433 C 34.667 26.49 29.762 32.393 23.16 34.002 Z" fill="rgb(233,198,255)"></path></svg>