<svg width="30" height="30" viewBox="0 0 30 30" fill="none" xmlns="http://www.w3.org/2000/svg">
  <path d="M0 0H30V30H0V0Z" fill="#FF983D" />
  <path
    d="M15 6.88086C19.141 6.88086 22.5 8.55886 22.5 10.6309C22.5 12.7029 19.141 14.3809 15 14.3809C10.859 14.3809 7.5 12.7029 7.5 10.6309C7.5 8.55886 10.859 6.88086 15 6.88086Z"
    fill="white" />
  <path
    d="M22.5 14.8689C22.5 16.9399 19.141 18.6189 15 18.6189C10.859 18.6189 7.5 16.9399 7.5 14.8689C7.5 14.4349 7.647 14.0179 7.917 13.6309C9.566 14.8549 12.126 15.6409 15 15.6409C17.874 15.6409 20.434 14.8549 22.083 13.6309C22.353 14.0179 22.5 14.4349 22.5 14.8689Z"
    fill="white" />
  <path
    d="M22.5 19.3689C22.5 21.4399 19.141 23.1189 15 23.1189C10.859 23.1189 7.5 21.4399 7.5 19.3689C7.5 18.9349 7.647 18.5179 7.917 18.1309C9.566 19.3549 12.126 20.1409 15 20.1409C17.874 20.1409 20.434 19.3549 22.083 18.1309C22.353 18.5179 22.5 18.9349 22.5 19.3689Z"
    fill="white" />
</svg>