<svg xmlns="http://www.w3.org/2000/svg" width="30" height="30">
  <path d="M 0 0 L 30 0 L 30 30 L 0 30 Z" fill="rgb(0, 196, 62)"></path>
  <path
    d="M 6 8 C 6 6.895 6.895 6 8 6 L 22 6 C 23.105 6 24 6.895 24 8 L 24 22 C 24 23.105 23.105 24 22 24 L 8 24 C 6.895 24 6 23.105 6 22 Z M 8 21.5 C 8 21.776 8.224 22 8.5 22 L 14 22 L 14 16 L 8 16 Z M 21.5 22 C 21.776 22 22 21.776 22 21.5 L 22 16 L 16 16 L 16 22 Z M 22 8.5 C 22 8.224 21.776 8 21.5 8 L 16 8 L 16 14 L 22 14 Z M 8.5 8 C 8.224 8 8 8.224 8 8.5 L 8 14 L 14 14 L 14 8 Z"
    fill="#ffffff"></path>
</svg>