<svg xmlns="http://www.w3.org/2000/svg" width="30" height="30">
	<rect width="30" height="30" fill="#FF642D" rx="8" ry="8"/>
	<path d="M 23.672 15.046 C 23.672 15.478 23.445 15.549 22.883 15.549 C 22.284 15.549 22.176 15.452 22.112 15.011 C 21.994 13.891 21.215 12.939 19.909 12.833 C 19.492 12.798 19.392 12.648 19.392 12.146 C 19.392 11.678 19.465 11.458 19.836 11.458 C 22.103 11.467 23.672 13.239 23.672 15.046 Z M 26.972 15.046 C 26.972 11.687 24.633 8.134 19.229 8.134 L 8.494 8.134 C 8.276 8.134 8.14 8.24 8.14 8.434 C 8.14 8.54 8.222 8.637 8.294 8.69 C 8.684 8.99 9.264 9.325 10.026 9.695 C 10.77 10.056 11.35 10.294 11.93 10.524 C 12.175 10.62 12.266 10.726 12.266 10.859 C 12.266 11.044 12.13 11.158 11.867 11.158 L 3.344 11.158 C 3.09 11.158 2.972 11.317 2.972 11.476 C 2.972 11.608 3.017 11.723 3.135 11.837 C 3.824 12.542 4.93 13.389 6.535 14.367 C 7.941 15.223 9.682 16.148 11.069 16.792 C 11.304 16.898 11.377 17.021 11.377 17.153 C 11.368 17.303 11.25 17.427 10.978 17.427 L 7.07 17.427 C 6.853 17.427 6.726 17.541 6.726 17.717 C 6.726 17.814 6.807 17.938 6.916 18.035 C 7.805 18.819 9.228 19.675 11.123 20.459 C 13.653 21.508 16.219 22.134 19.102 22.134 C 24.569 22.134 26.972 18.158 26.972 15.046 Z M 19.836 19.816 C 17.153 19.816 14.913 17.691 14.913 15.046 C 14.913 12.437 17.153 10.347 19.836 10.347 C 22.593 10.347 24.742 12.437 24.742 15.046 C 24.733 17.691 22.584 19.816 19.836 19.816 Z" fill="rgb(255, 255, 255)"></path>
</svg>
