<svg width="30" height="30" viewBox="0 0 30 30" fill="none" xmlns="http://www.w3.org/2000/svg">    <rect width="30" height="30" fill="#ECE0F5"/>    <path d="M10.5406 13.8214C12.3109 13.8214 13.7433 15.2549 13.7433 17.0265V21.2053C13.7433 22.9634 12.3244 24.3969 10.5541 24.3969H7.33789V17.0265C7.33789 15.2549 8.77036 13.8349 10.5406 13.8349V13.8214Z" fill="#5A1CB7"/>    <path d="M10.5406 12.1308C8.77036 12.1308 7.33789 10.6973 7.33789 8.93928C7.33789 7.16764 8.77036 5.74766 10.5406 5.74766C12.3109 5.74766 13.7433 7.18119 13.7433 8.93928C13.7433 10.7109 12.3109 12.1308 10.5406 12.1308Z" fill="#E23393"/>    <path d="M22.5945 24.3834H19.3918C17.6351 24.3834 16.2026 22.9634 16.2026 21.1918V17.0129C16.2026 15.2414 17.6351 13.8214 19.4053 13.8214C21.1756 13.8214 22.608 15.2549 22.608 17.0129V24.3834H22.5945Z" fill="#5A1CB7"/>    <path d="M19.4053 5.73412C21.1756 5.73412 22.5945 7.16765 22.5945 8.92573C22.5945 10.6973 21.1621 12.1309 19.4053 12.1309C17.6351 12.1309 16.2026 10.6973 16.2026 8.92573C16.2026 7.1541 17.6351 5.73412 19.4053 5.73412Z" fill="#5A1CB7"/></svg>