<svg xmlns="http://www.w3.org/2000/svg" width="30" height="30" viewBox="0 0 20 20" fill="none"><path d="M 0 0 L 20 0 L 20 20 L 0 20 Z" fill="rgb(102, 102, 255)"></path><path d="M 4 6 C 4 4.895 4.895 4 6 4 L 14 4 C 15.105 4 16 4.895 16 6 L 16 14 C 16 15.105 15.105 16 14 16 L 6 16 C 4.895 16 4 15.105 4 14 Z M 7.5 7.75 C 7.5 8.164 7.836 8.5 8.25 8.5 L 10.436 8.5 L 7.275 11.661 C 6.982 11.954 6.983 12.429 7.276 12.721 C 7.568 13.014 8.043 13.014 8.336 12.721 L 11.5 9.557 L 11.5 11.75 C 11.5 12.164 11.836 12.5 12.25 12.5 C 12.664 12.5 13 12.164 13 11.75 L 13 7.75 C 13 7.336 12.664 7 12.25 7 L 8.25 7 C 7.836 7 7.5 7.336 7.5 7.75 Z" fill="#ffffff"></path></svg>
