<svg width="60" height="60" viewBox="0 0 60 60" fill="none" xmlns="http://www.w3.org/2000/svg">
<rect width="60" height="60" fill="black"/>
<path d="M9.18438 17.192C8.27771 17.192 7.50438 16.9573 6.86438 16.488C6.22438 16.008 5.73371 15.336 5.39238 14.472C5.05104 13.5973 4.88038 12.5787 4.88038 11.416C4.88038 10.232 5.05104 9.208 5.39238 8.344C5.73371 7.48 6.22438 6.81333 6.86438 6.344C7.50438 5.87467 8.27771 5.64 9.18438 5.64C10.1017 5.64 10.875 5.87467 11.5044 6.344C12.1444 6.81333 12.635 7.48 12.9764 8.344C13.3177 9.19733 13.4884 10.2213 13.4884 11.416C13.4884 12.5893 13.3177 13.608 12.9764 14.472C12.635 15.336 12.1444 16.008 11.5044 16.488C10.875 16.9573 10.1017 17.192 9.18438 17.192ZM9.18438 15.752C10.027 15.752 10.6617 15.3733 11.0884 14.616C11.515 13.848 11.7284 12.7813 11.7284 11.416C11.7284 10.0293 11.515 8.96267 11.0884 8.216C10.6617 7.45867 10.027 7.08 9.18438 7.08C8.35238 7.08 7.72304 7.45867 7.29638 8.216C6.86971 8.96267 6.65638 10.0293 6.65638 11.416C6.65638 12.7813 6.86971 13.848 7.29638 14.616C7.72304 15.3733 8.35238 15.752 9.18438 15.752ZM19.4626 17V10.104L19.5426 7.832L17.7346 9.304L15.7346 10.904V8.904L19.9266 5.832H21.1586V17H19.4626ZM15.7346 17V15.56H23.6386V17H15.7346ZM29.8689 17V10.104L29.9489 7.832L28.1409 9.304L26.1409 10.904V8.904L30.3329 5.832H31.5649V17H29.8689ZM26.1409 17V15.56H34.0449V17H26.1409ZM40.4031 17.192C39.4965 17.192 38.7231 16.9573 38.0831 16.488C37.4431 16.008 36.9525 15.336 36.6111 14.472C36.2698 13.5973 36.0991 12.5787 36.0991 11.416C36.0991 10.232 36.2698 9.208 36.6111 8.344C36.9525 7.48 37.4431 6.81333 38.0831 6.344C38.7231 5.87467 39.4965 5.64 40.4031 5.64C41.3205 5.64 42.0938 5.87467 42.7231 6.344C43.3631 6.81333 43.8538 7.48 44.1951 8.344C44.5365 9.19733 44.7071 10.2213 44.7071 11.416C44.7071 12.5893 44.5365 13.608 44.1951 14.472C43.8538 15.336 43.3631 16.008 42.7231 16.488C42.0938 16.9573 41.3205 17.192 40.4031 17.192ZM40.4031 15.752C41.2458 15.752 41.8805 15.3733 42.3071 14.616C42.7338 13.848 42.9471 12.7813 42.9471 11.416C42.9471 10.0293 42.7338 8.96267 42.3071 8.216C41.8805 7.45867 41.2458 7.08 40.4031 7.08C39.5711 7.08 38.9418 7.45867 38.5151 8.216C38.0885 8.96267 37.8751 10.0293 37.8751 11.416C37.8751 12.7813 38.0885 13.848 38.5151 14.616C38.9418 15.3733 39.5711 15.752 40.4031 15.752ZM50.8094 17.192C49.9027 17.192 49.1294 16.9573 48.4894 16.488C47.8494 16.008 47.3587 15.336 47.0174 14.472C46.676 13.5973 46.5054 12.5787 46.5054 11.416C46.5054 10.232 46.676 9.208 47.0174 8.344C47.3587 7.48 47.8494 6.81333 48.4894 6.344C49.1294 5.87467 49.9027 5.64 50.8094 5.64C51.7267 5.64 52.5 5.87467 53.1294 6.344C53.7694 6.81333 54.26 7.48 54.6014 8.344C54.9427 9.19733 55.1134 10.2213 55.1134 11.416C55.1134 12.5893 54.9427 13.608 54.6014 14.472C54.26 15.336 53.7694 16.008 53.1294 16.488C52.5 16.9573 51.7267 17.192 50.8094 17.192ZM50.8094 15.752C51.652 15.752 52.2867 15.3733 52.7134 14.616C53.14 13.848 53.3534 12.7813 53.3534 11.416C53.3534 10.0293 53.14 8.96267 52.7134 8.216C52.2867 7.45867 51.652 7.08 50.8094 7.08C49.9774 7.08 49.348 7.45867 48.9214 8.216C48.4947 8.96267 48.2814 10.0293 48.2814 11.416C48.2814 12.7813 48.4947 13.848 48.9214 14.616C49.348 15.3733 49.9774 15.752 50.8094 15.752ZM9.18438 36.192C8.27771 36.192 7.50438 35.9573 6.86438 35.488C6.22438 35.008 5.73371 34.336 5.39238 33.472C5.05104 32.5973 4.88038 31.5787 4.88038 30.416C4.88038 29.232 5.05104 28.208 5.39238 27.344C5.73371 26.48 6.22438 25.8133 6.86438 25.344C7.50438 24.8747 8.27771 24.64 9.18438 24.64C10.1017 24.64 10.875 24.8747 11.5044 25.344C12.1444 25.8133 12.635 26.48 12.9764 27.344C13.3177 28.1973 13.4884 29.2213 13.4884 30.416C13.4884 31.5893 13.3177 32.608 12.9764 33.472C12.635 34.336 12.1444 35.008 11.5044 35.488C10.875 35.9573 10.1017 36.192 9.18438 36.192ZM9.18438 34.752C10.027 34.752 10.6617 34.3733 11.0884 33.616C11.515 32.848 11.7284 31.7813 11.7284 30.416C11.7284 29.0293 11.515 27.9627 11.0884 27.216C10.6617 26.4587 10.027 26.08 9.18438 26.08C8.35238 26.08 7.72304 26.4587 7.29638 27.216C6.86971 27.9627 6.65638 29.0293 6.65638 30.416C6.65638 31.7813 6.86971 32.848 7.29638 33.616C7.72304 34.3733 8.35238 34.752 9.18438 34.752ZM19.5906 36.192C18.684 36.192 17.9106 35.9573 17.2706 35.488C16.6306 35.008 16.14 34.336 15.7986 33.472C15.4573 32.5973 15.2866 31.5787 15.2866 30.416C15.2866 29.232 15.4573 28.208 15.7986 27.344C16.14 26.48 16.6306 25.8133 17.2706 25.344C17.9106 24.8747 18.684 24.64 19.5906 24.64C20.508 24.64 21.2813 24.8747 21.9106 25.344C22.5506 25.8133 23.0413 26.48 23.3826 27.344C23.724 28.1973 23.8946 29.2213 23.8946 30.416C23.8946 31.5893 23.724 32.608 23.3826 33.472C23.0413 34.336 22.5506 35.008 21.9106 35.488C21.2813 35.9573 20.508 36.192 19.5906 36.192ZM19.5906 34.752C20.4333 34.752 21.068 34.3733 21.4946 33.616C21.9213 32.848 22.1346 31.7813 22.1346 30.416C22.1346 29.0293 21.9213 27.9627 21.4946 27.216C21.068 26.4587 20.4333 26.08 19.5906 26.08C18.7586 26.08 18.1293 26.4587 17.7026 27.216C17.276 27.9627 17.0626 29.0293 17.0626 30.416C17.0626 31.7813 17.276 32.848 17.7026 33.616C18.1293 34.3733 18.7586 34.752 19.5906 34.752ZM29.8689 36V29.104L29.9489 26.832L28.1409 28.304L26.1409 29.904V27.904L30.3329 24.832H31.5649V36H29.8689ZM26.1409 36V34.56H34.0449V36H26.1409ZM40.4031 36.192C39.4965 36.192 38.7231 35.9573 38.0831 35.488C37.4431 35.008 36.9525 34.336 36.6111 33.472C36.2698 32.5973 36.0991 31.5787 36.0991 30.416C36.0991 29.232 36.2698 28.208 36.6111 27.344C36.9525 26.48 37.4431 25.8133 38.0831 25.344C38.7231 24.8747 39.4965 24.64 40.4031 24.64C41.3205 24.64 42.0938 24.8747 42.7231 25.344C43.3631 25.8133 43.8538 26.48 44.1951 27.344C44.5365 28.1973 44.7071 29.2213 44.7071 30.416C44.7071 31.5893 44.5365 32.608 44.1951 33.472C43.8538 34.336 43.3631 35.008 42.7231 35.488C42.0938 35.9573 41.3205 36.192 40.4031 36.192ZM40.4031 34.752C41.2458 34.752 41.8805 34.3733 42.3071 33.616C42.7338 32.848 42.9471 31.7813 42.9471 30.416C42.9471 29.0293 42.7338 27.9627 42.3071 27.216C41.8805 26.4587 41.2458 26.08 40.4031 26.08C39.5711 26.08 38.9418 26.4587 38.5151 27.216C38.0885 27.9627 37.8751 29.0293 37.8751 30.416C37.8751 31.7813 38.0885 32.848 38.5151 33.616C38.9418 34.3733 39.5711 34.752 40.4031 34.752ZM50.6814 36V29.104L50.7614 26.832L48.9534 28.304L46.9534 29.904V27.904L51.1454 24.832H52.3774V36H50.6814ZM46.9534 36V34.56H54.8574V36H46.9534ZM9.05638 55V48.104L9.13638 45.832L7.32838 47.304L5.32838 48.904V46.904L9.52038 43.832H10.7524V55H9.05638ZM5.32838 55V53.56H13.2324V55H5.32838ZM19.4626 55V48.104L19.5426 45.832L17.7346 47.304L15.7346 48.904V46.904L19.9266 43.832H21.1586V55H19.4626ZM15.7346 55V53.56H23.6386V55H15.7346ZM29.9969 55.192C29.0902 55.192 28.3169 54.9573 27.6769 54.488C27.0369 54.008 26.5462 53.336 26.2049 52.472C25.8635 51.5973 25.6929 50.5787 25.6929 49.416C25.6929 48.232 25.8635 47.208 26.2049 46.344C26.5462 45.48 27.0369 44.8133 27.6769 44.344C28.3169 43.8747 29.0902 43.64 29.9969 43.64C30.9142 43.64 31.6875 43.8747 32.3169 44.344C32.9569 44.8133 33.4475 45.48 33.7889 46.344C34.1302 47.1973 34.3009 48.2213 34.3009 49.416C34.3009 50.5893 34.1302 51.608 33.7889 52.472C33.4475 53.336 32.9569 54.008 32.3169 54.488C31.6875 54.9573 30.9142 55.192 29.9969 55.192ZM29.9969 53.752C30.8395 53.752 31.4742 53.3733 31.9009 52.616C32.3275 51.848 32.5409 50.7813 32.5409 49.416C32.5409 48.0293 32.3275 46.9627 31.9009 46.216C31.4742 45.4587 30.8395 45.08 29.9969 45.08C29.1649 45.08 28.5355 45.4587 28.1089 46.216C27.6822 46.9627 27.4689 48.0293 27.4689 49.416C27.4689 50.7813 27.6822 51.848 28.1089 52.616C28.5355 53.3733 29.1649 53.752 29.9969 53.752ZM40.4031 55.192C39.4965 55.192 38.7231 54.9573 38.0831 54.488C37.4431 54.008 36.9525 53.336 36.6111 52.472C36.2698 51.5973 36.0991 50.5787 36.0991 49.416C36.0991 48.232 36.2698 47.208 36.6111 46.344C36.9525 45.48 37.4431 44.8133 38.0831 44.344C38.7231 43.8747 39.4965 43.64 40.4031 43.64C41.3205 43.64 42.0938 43.8747 42.7231 44.344C43.3631 44.8133 43.8538 45.48 44.1951 46.344C44.5365 47.1973 44.7071 48.2213 44.7071 49.416C44.7071 50.5893 44.5365 51.608 44.1951 52.472C43.8538 53.336 43.3631 54.008 42.7231 54.488C42.0938 54.9573 41.3205 55.192 40.4031 55.192ZM40.4031 53.752C41.2458 53.752 41.8805 53.3733 42.3071 52.616C42.7338 51.848 42.9471 50.7813 42.9471 49.416C42.9471 48.0293 42.7338 46.9627 42.3071 46.216C41.8805 45.4587 41.2458 45.08 40.4031 45.08C39.5711 45.08 38.9418 45.4587 38.5151 46.216C38.0885 46.9627 37.8751 48.0293 37.8751 49.416C37.8751 50.7813 38.0885 51.848 38.5151 52.616C38.9418 53.3733 39.5711 53.752 40.4031 53.752ZM50.6814 55V48.104L50.7614 45.832L48.9534 47.304L46.9534 48.904V46.904L51.1454 43.832H52.3774V55H50.6814ZM46.9534 55V53.56H54.8574V55H46.9534Z" fill="#00FF41"/>
</svg>
