<svg width="310" height="64" viewBox="0 0 310 64" fill="#FFF" xmlns="http://www.w3.org/2000/svg">
  <path
    d="M80.1729 34.6364C80.1729 39.4099 81.6222 43.2369 84.5212 46.1212C87.4204 49.0037 91.3401 50.4469 96.2822 50.4469C101.224 50.4469 104.55 49.2297 107.022 46.7931C109.492 44.338 110.728 41.4943 110.728 38.2598V37.9688H103.578V38.2312C103.578 39.5361 103.013 40.6558 101.885 41.5921C100.756 42.5264 98.8702 42.9945 96.2233 42.9945C93.2469 42.9945 91.0676 42.2638 89.6852 40.8023C88.3028 39.3407 87.6135 37.3927 87.6135 34.9581V33.3804C87.6135 30.9459 88.3148 28.9979 89.7157 27.5362C91.1164 26.0747 93.2855 25.344 96.2233 25.344C98.7909 25.344 100.659 25.7918 101.826 26.6873C103.013 27.5831 103.607 28.7128 103.607 30.0767V30.3698H110.757L110.728 29.9892C110.612 26.7362 109.346 23.9108 106.935 21.515C104.521 19.0987 100.972 17.8916 96.2822 17.8916C91.3401 17.8916 87.4204 19.3328 84.5212 22.2173C81.6222 25.0814 80.1729 28.9083 80.1729 33.7021V34.6364Z" />
  <path
    d="M116.74 49.5694H124.036V34.392C124.036 31.0678 125.632 29.3478 126.953 28.4133C128.277 27.4587 129.786 26.9823 131.477 26.9823C132.001 26.9823 132.479 27.0109 132.906 27.0698C133.353 27.1289 133.772 27.196 134.16 27.2734V18.3311C133.965 18.2537 133.626 18.1661 133.14 18.0684C132.672 17.9708 132.215 17.9219 131.768 17.9219C130.036 17.9219 128.489 18.3901 127.126 19.3245C125.901 20.1671 124.91 21.1584 124.156 22.3025C124.079 22.4205 123.894 22.3718 123.886 22.2292L123.247 18.7687H116.738V49.5694H116.74Z" />
  <path
    d="M137.141 34.6364C137.141 39.4099 138.65 43.2369 141.665 46.1212C144.679 49.0037 148.65 50.4469 153.572 50.4469C158.494 50.4469 162.434 49.0058 165.451 46.1212C168.486 43.2389 170.002 39.4099 170.002 34.6364V33.7021C170.002 28.9102 168.484 25.0814 165.451 22.2173C162.436 19.3348 158.475 17.8916 153.572 17.8916C148.668 17.8916 144.679 19.3328 141.665 22.2173C138.65 25.0814 137.141 28.9083 137.141 33.7021V34.6364ZM144.584 33.3804C144.584 30.7118 145.363 28.7636 146.918 27.5362C148.475 26.3088 150.693 25.696 153.572 25.696C156.45 25.696 158.64 26.3088 160.197 27.5362C161.773 28.7636 162.562 30.7118 162.562 33.3804V34.9581C162.562 37.7244 161.783 39.701 160.228 40.8898C158.691 42.0582 156.473 42.6425 153.574 42.6425C150.675 42.6425 148.447 42.0582 146.891 40.8898C145.355 39.701 144.586 37.7244 144.586 34.9581V33.3804H144.584Z" />
  <path
    d="M173.318 18.7671L182.484 49.5677H190.785L197.291 27.2025C197.36 26.9625 197.699 26.9583 197.775 27.1986L204.793 49.5718H213.087L222.31 18.7712H213.285L208.734 35.9251C208.537 36.7047 208.353 37.4742 208.177 38.2335C208.079 38.7118 207.912 39.4711 207.809 39.9516C207.786 40.0574 207.633 40.0594 207.609 39.9516C207.482 39.4019 207.339 38.8279 207.185 38.2315C206.991 37.4518 206.777 36.6823 206.543 35.9232L201.466 18.7692H192.827C192.827 18.7692 187.726 36.2671 186.787 39.7541C186.746 39.9048 186.532 39.9027 186.495 39.752L181.213 18.7692H173.32L173.318 18.7671Z" />
  <path
    d="M224.693 34.6368C224.693 39.1945 225.929 42.9257 228.399 45.8285C230.889 48.7108 234.344 50.1542 238.762 50.1542C241.057 50.1542 243.041 49.7348 244.714 48.8982C245.878 48.3099 247.369 46.9846 248.191 46.2132C248.525 47.6299 248.976 49.5699 248.976 49.5699H256.208V4.77246H248.596V22.4802C247.624 21.1163 246.339 20.0639 244.743 19.325C243.15 18.5657 241.212 18.1851 238.937 18.1851C234.656 18.1851 231.211 19.6364 228.606 22.5392C225.997 25.4215 224.693 29.1428 224.693 33.7023V34.6368ZM232.136 34.9279L232.107 33.4092C232.107 31.1884 232.789 29.3951 234.15 28.0333C235.512 26.651 237.623 25.959 240.484 25.959C242.487 25.959 244.19 26.4271 245.59 27.3615C245.604 27.3716 245.62 27.3799 245.633 27.39C247.505 28.6542 248.596 30.7976 248.596 33.0591V35.1762C248.596 37.5009 247.443 39.6951 245.489 40.9512C245.475 40.9613 245.458 40.9694 245.444 40.9798C243.946 41.9141 242.215 42.3822 240.25 42.3822C237.368 42.3822 235.298 41.6902 234.032 40.3079C232.768 38.9258 232.136 37.1325 232.136 34.932V34.9279Z" />
  <path
    d="M264.852 49.5696H272.119V18.7689H264.852V49.5696ZM263.308 10.3537C263.308 11.6789 263.754 12.77 264.649 13.627C265.564 14.4657 266.847 14.8829 268.5 14.8829C270.155 14.8829 271.399 14.4534 272.294 13.5964C273.209 12.7395 273.665 11.6586 273.665 10.3537C273.665 9.04892 273.219 7.9965 272.322 7.13953C271.428 6.28253 270.145 5.85303 268.471 5.85303C266.795 5.85303 265.564 6.28253 264.649 7.13953C263.754 7.9965 263.308 9.06724 263.308 10.3537Z" />
  <path
    d="M280.933 49.5693H288.2V37.0747C288.2 30.001 290.698 25.5207 296.138 25.5207C301.577 25.5207 302.734 28.6859 302.734 33.1358V49.5693H310V31.3058C310 26.0661 308.931 22.569 306.79 20.8144C304.649 19.0413 301.918 18.1558 298.589 18.1558C296.391 18.1558 294.359 18.565 292.49 19.3834C290.81 20.11 289.44 21.1421 288.388 22.4815C288.3 22.0072 287.82 18.7706 287.82 18.7706H280.933V49.5712V49.5693Z" />
  <path
    d="M45.4307 0C48.3966 0 51.0895 0.490939 53.4482 1.42188C55.612 2.27593 57.4949 3.50075 59.0498 5.05566C60.6458 6.65195 61.9019 8.58115 62.7666 10.8008C63.6621 13.1001 64.1377 15.7112 64.1377 18.5859V45.1367C64.1377 48.0832 63.644 50.7584 62.707 53.1016C61.8473 55.2513 60.6147 57.1222 59.0498 58.667C57.4867 60.2098 55.6061 61.4329 53.4482 62.2891C51.0902 63.2246 48.4001 63.7227 45.4307 63.7227H18.707C15.7287 63.7227 13.0258 63.2276 10.6602 62.2891C8.50869 61.4356 6.6357 60.2147 5.08789 58.667C3.53516 57.1141 2.30512 55.2455 1.44336 53.1016C0.501681 50.7589 2.46287e-05 48.087 0 45.1367V18.373C1.70204e-05 15.5976 0.464161 13.0528 1.33594 10.8008C2.19882 8.57176 3.46154 6.62959 5.06738 5.03418C6.6151 3.49653 8.48675 2.2757 10.6289 1.42188C12.9549 0.494808 15.5997 0 18.4932 0H45.4307ZM13.4258 34.3369C10.4972 34.1435 10.6469 36.5967 10.7324 37.8877C11.0103 43.2891 13.3835 47.8511 17.2959 50.4336C18.9207 51.5094 20.845 52.2415 23.1113 52.6719C23.6464 52.7794 25.549 53.167 27.4727 53.1025C30.4441 52.9733 30.7432 52.1118 30.7432 51.7676C30.743 51.3159 30.4222 51.1006 29.7383 51.1006V51.0791C26.7237 51.0788 20.3955 46.2153 20.3955 38.5977C20.3954 37.2635 19.5833 35.9081 17.916 35.4131C16.5691 35.0043 14.6444 34.4015 13.4258 34.3369ZM26.6396 36.4893C25.7203 36.4034 25.0356 36.9416 25.1426 38.5557C25.335 41.0085 26.3189 42.9237 27.9648 44.8174C29.9104 47.0554 32.4763 48.3467 35.2129 48.2822C38.2269 48.2177 38.4405 47.6793 38.4619 47.2705C38.4619 46.8618 38.2698 46.6252 37.9277 46.5391V46.5605C35.9824 46.1087 32.7113 43.9782 31.9629 38.5771C31.8132 37.5657 31.2573 37.0707 30.4023 36.8984C29.2694 36.6618 27.2811 36.5539 26.6396 36.4893ZM36.9219 37.7158C36.9219 37.7158 36.1311 37.7158 36.1309 38.4902C36.1522 39.9964 37.0073 41.2877 38.0547 42.1484C38.931 42.88 40.0002 43.2675 41.2188 43.2676C42.2877 43.2461 42.4163 42.4721 41.9033 42.2354C41.0481 41.8266 39.9365 40.9224 39.7012 38.8779H39.6797C39.6583 38.6413 39.4657 37.7373 38.8457 37.7158H36.9219ZM47.7617 25.1914C39.082 25.1915 36.8161 29.5814 36.1748 32.5078C35.8757 33.9279 36.7303 34.0358 37.5215 34.1865C38.6331 34.3801 39.5314 34.2077 39.9375 33.1318C41.1561 29.7962 42.8239 26.5254 48.1045 26.5254C48.6384 26.5252 49.1079 26.181 49.1084 25.8584C49.1084 25.5357 48.7665 25.1914 47.7832 25.1914H47.7617ZM45.4307 18.1328C42.6742 18.1328 39.9175 18.4758 37.4131 19.0967C35.0227 19.6895 32.8615 20.5349 31.1494 21.5752C29.2682 22.7158 27.8144 24.0933 26.8096 25.6855C25.9971 26.9767 25.4629 28.3755 25.2705 29.8818C25.2063 30.3768 25.1632 31.9261 26.7881 32.335C27.7928 32.5932 29.3752 32.7009 30.4229 32.8301C32.1325 33.0233 32.6031 31.1095 32.7529 30.7861C34.0999 27.0417 36.1098 24.5234 38.9746 22.8662C40.722 21.8577 42.8323 21.1759 45.4307 20.792C47.1558 20.5371 49.0967 20.4131 51.2891 20.4131C52.0161 20.4131 53.7041 20.4994 53.7041 19.6602C53.7041 19.0163 52.3755 18.6476 50.7754 18.4365C48.6335 18.1541 46.0059 18.1543 45.4307 18.1543V18.1328ZM45.4297 11.0371C41.0038 10.5097 36.5149 10.4862 32.1533 10.9443C28.3093 11.3555 24.0186 12.3198 20.2822 14.3018C16.3924 16.3656 13.1034 19.5333 11.5439 24.3301C11.2232 25.2987 10.6458 28.8492 14.0234 29.71C15.1138 29.9896 16.2256 30.484 17.3799 30.6992C20.6725 31.3018 21.3779 28.1602 21.5703 27.5361C21.7628 26.9335 21.9768 26.3525 22.2334 25.75C23.2808 23.4906 24.8417 21.5757 26.6162 20.0908C30.2935 16.992 34.8685 15.5286 39.3154 14.8184C41.9022 14.4096 44.4892 14.2373 47.0762 14.3018C48.5376 14.3339 49.7565 14.381 50.7744 14.4307C51.8873 14.4851 52.7604 14.5421 53.4473 14.5869C55.5044 14.721 55.8945 14.7408 56.0771 14.2158C56.3764 13.3552 54.9657 12.9886 54.4521 12.8594C53.2409 12.5074 52.013 12.1978 50.7744 11.9297C49.0118 11.5482 47.2259 11.2511 45.4297 11.0371Z" />
</svg>