<svg width="310" height="64" viewBox="0 0 310 64" fill="none" xmlns="http://www.w3.org/2000/svg">
  <g clip-path="url(#clip0_51_22)">
    <path
      d="M80.1724 34.6364C80.1724 39.4099 81.6218 43.2369 84.5208 46.1212C87.42 49.0037 91.3396 50.4469 96.2817 50.4469C101.224 50.4469 104.55 49.2297 107.022 46.7931C109.492 44.338 110.728 41.4943 110.728 38.2598V37.9688H103.578V38.2312C103.578 39.5361 103.013 40.6558 101.885 41.5921C100.756 42.5264 98.8697 42.9945 96.2228 42.9945C93.2464 42.9945 91.0671 42.2638 89.6847 40.8023C88.3023 39.3407 87.6131 37.3927 87.6131 34.9581V33.3804C87.6131 30.9459 88.3143 28.9979 89.7152 27.5362C91.1159 26.0747 93.285 25.344 96.2228 25.344C98.7904 25.344 100.659 25.7918 101.826 26.6873C103.013 27.5831 103.607 28.7128 103.607 30.0767V30.3698H110.757L110.728 29.9892C110.612 26.7362 109.346 23.9108 106.935 21.515C104.521 19.0987 100.972 17.8916 96.2817 17.8916C91.3396 17.8916 87.42 19.3328 84.5208 22.2173C81.6218 25.0814 80.1724 28.9083 80.1724 33.7021V34.6364Z"
      fill="white" />
    <path
      d="M116.74 49.5694H124.036V34.392C124.036 31.0678 125.632 29.3478 126.953 28.4133C128.277 27.4587 129.786 26.9823 131.477 26.9823C132.001 26.9823 132.479 27.0109 132.906 27.0698C133.353 27.1289 133.772 27.196 134.16 27.2734V18.3311C133.965 18.2537 133.626 18.1661 133.14 18.0684C132.672 17.9708 132.215 17.9219 131.768 17.9219C130.036 17.9219 128.489 18.3901 127.126 19.3245C125.901 20.1671 124.91 21.1584 124.156 22.3025C124.079 22.4205 123.894 22.3718 123.886 22.2292L123.247 18.7687H116.738V49.5694H116.74Z"
      fill="white" />
    <path
      d="M137.141 34.6364C137.141 39.4099 138.65 43.2369 141.665 46.1212C144.679 49.0037 148.65 50.4469 153.572 50.4469C158.494 50.4469 162.434 49.0058 165.451 46.1212C168.486 43.2389 170.002 39.4099 170.002 34.6364V33.7021C170.002 28.9102 168.484 25.0814 165.451 22.2173C162.436 19.3348 158.475 17.8916 153.572 17.8916C148.668 17.8916 144.679 19.3328 141.665 22.2173C138.65 25.0814 137.141 28.9083 137.141 33.7021V34.6364ZM144.584 33.3804C144.584 30.7118 145.363 28.7636 146.918 27.5362C148.475 26.3088 150.693 25.696 153.572 25.696C156.45 25.696 158.64 26.3088 160.197 27.5362C161.773 28.7636 162.562 30.7118 162.562 33.3804V34.9581C162.562 37.7244 161.783 39.701 160.228 40.8898C158.691 42.0582 156.473 42.6425 153.574 42.6425C150.675 42.6425 148.447 42.0582 146.891 40.8898C145.355 39.701 144.586 37.7244 144.586 34.9581V33.3804H144.584Z"
      fill="white" />
    <path
      d="M173.318 18.7671L182.484 49.5677H190.785L197.291 27.2025C197.36 26.9625 197.699 26.9583 197.775 27.1986L204.793 49.5718H213.087L222.31 18.7712H213.285L208.734 35.9251C208.537 36.7047 208.353 37.4742 208.177 38.2335C208.079 38.7118 207.912 39.4711 207.809 39.9516C207.786 40.0574 207.633 40.0594 207.609 39.9516C207.482 39.4019 207.339 38.8279 207.185 38.2315C206.991 37.4518 206.777 36.6823 206.543 35.9232L201.466 18.7692H192.827C192.827 18.7692 187.726 36.2671 186.787 39.7541C186.746 39.9048 186.532 39.9027 186.495 39.752L181.213 18.7692H173.32L173.318 18.7671Z"
      fill="white" />
    <path
      d="M224.693 34.6368C224.693 39.1945 225.929 42.9257 228.399 45.8285C230.889 48.7108 234.344 50.1542 238.762 50.1542C241.057 50.1542 243.041 49.7348 244.714 48.8982C245.878 48.3099 247.369 46.9846 248.191 46.2132C248.525 47.6299 248.976 49.5699 248.976 49.5699H256.208V4.77246H248.596V22.4802C247.624 21.1163 246.339 20.0639 244.743 19.325C243.15 18.5657 241.212 18.1851 238.937 18.1851C234.656 18.1851 231.211 19.6364 228.606 22.5392C225.997 25.4215 224.693 29.1428 224.693 33.7023V34.6368ZM232.136 34.9279L232.107 33.4092C232.107 31.1884 232.789 29.3951 234.15 28.0333C235.512 26.651 237.623 25.959 240.484 25.959C242.487 25.959 244.19 26.4271 245.59 27.3615C245.604 27.3716 245.62 27.3799 245.633 27.39C247.505 28.6542 248.596 30.7976 248.596 33.0591V35.1762C248.596 37.5009 247.443 39.6951 245.489 40.9512C245.475 40.9613 245.458 40.9694 245.444 40.9798C243.946 41.9141 242.215 42.3822 240.25 42.3822C237.368 42.3822 235.298 41.6902 234.032 40.3079C232.768 38.9258 232.136 37.1325 232.136 34.932V34.9279Z"
      fill="white" />
    <path
      d="M264.852 49.5696H272.119V18.7689H264.852V49.5696ZM263.308 10.3537C263.308 11.6789 263.754 12.77 264.649 13.627C265.564 14.4657 266.847 14.8829 268.5 14.8829C270.155 14.8829 271.399 14.4534 272.294 13.5964C273.209 12.7395 273.665 11.6586 273.665 10.3537C273.665 9.04892 273.219 7.9965 272.322 7.13953C271.428 6.28253 270.145 5.85303 268.471 5.85303C266.795 5.85303 265.564 6.28253 264.649 7.13953C263.754 7.9965 263.308 9.06724 263.308 10.3537Z"
      fill="white" />
    <path
      d="M280.933 49.5693H288.2V37.0747C288.2 30.001 290.698 25.5207 296.138 25.5207C301.577 25.5207 302.734 28.6859 302.734 33.1358V49.5693H310V31.3058C310 26.0661 308.931 22.569 306.79 20.8144C304.649 19.0413 301.918 18.1558 298.589 18.1558C296.391 18.1558 294.359 18.565 292.49 19.3834C290.81 20.11 289.44 21.1421 288.388 22.4815C288.3 22.0072 287.82 18.7706 287.82 18.7706H280.933V49.5712V49.5693Z"
      fill="white" />
    <path
      d="M45.431 0H18.493C15.5995 0 12.9551 0.494993 10.6291 1.42206C8.48682 2.27592 6.61468 3.4963 5.0669 5.03406C3.46106 6.62947 2.19909 8.57178 1.33621 10.8008C0.464399 13.0529 0 15.5977 0 18.3732V45.1365C0 48.0869 0.501296 50.7591 1.44302 53.1018C2.30482 55.2458 3.53545 57.1141 5.08827 58.667C6.63608 60.2147 8.50883 61.4351 10.6603 62.2886C13.026 63.2271 15.7286 63.7222 18.7069 63.7222H45.431C48.4005 63.7222 51.0902 63.2242 53.4483 62.2886C55.6062 61.4324 57.4866 60.2098 59.0497 58.667C60.6146 57.1222 61.8469 55.2516 62.7066 53.1018C63.6437 50.7585 64.138 48.0832 64.138 45.1365V18.5857C64.138 15.7109 63.6619 13.1001 62.7664 10.8008C61.9017 8.58106 60.6458 6.65162 59.0497 5.05529C57.4948 3.50038 55.6121 2.27612 53.4483 1.42206C51.0895 0.491095 48.397 0 45.431 0Z"
      fill="white" />
    <path
      d="M39.6794 38.8778C39.658 38.6412 39.4656 37.7373 38.8456 37.7158C38.2256 37.7158 36.9214 37.7158 36.9214 37.7158C36.9214 37.7158 36.1304 37.7158 36.1304 38.4905C36.1517 39.9969 37.007 41.2881 38.0546 42.1488C38.931 42.8804 40 43.2679 41.2187 43.2679C42.2877 43.2464 42.416 42.4716 41.9029 42.2349C41.0477 41.8261 39.936 40.9223 39.7007 38.8778H39.6794Z"
      fill="#263238" />
    <path
      d="M45.4308 18.1323C42.6743 18.1323 39.9179 18.4759 37.4135 19.0968C35.0229 19.6896 32.8616 20.535 31.1494 21.5754C29.2681 22.716 27.8142 24.0933 26.8094 25.6856C25.9969 26.9768 25.4625 28.3756 25.2701 29.882C25.2059 30.377 25.1631 31.9265 26.7881 32.3353C27.7928 32.5935 29.3748 32.7011 30.4225 32.8303C32.1328 33.0239 32.6031 31.1086 32.7528 30.7858C34.0998 27.0414 36.1094 24.5237 38.9742 22.8665C40.7217 21.8578 42.8321 21.1755 45.4308 20.7916C47.1559 20.5367 49.0963 20.4134 51.2887 20.4134C52.0155 20.4134 53.7045 20.4995 53.7045 19.6601C53.7045 19.0162 52.3756 18.6474 50.7755 18.4363C48.6336 18.1539 46.006 18.1539 45.4308 18.1539V18.1323Z"
      fill="#263238" />
    <path
      d="M37.9271 46.5604C35.9817 46.1085 32.7107 43.9781 31.9624 38.5767C31.8127 37.5652 31.2568 37.0703 30.4017 36.8981C29.2686 36.6614 27.2803 36.5538 26.639 36.4892C25.7197 36.4033 25.0354 36.9411 25.1424 38.5552C25.3347 41.0083 26.3183 42.9236 27.9644 44.8174C29.91 47.0554 32.4754 48.3465 35.212 48.282C38.2264 48.2175 38.4403 47.6795 38.4617 47.2707C38.4617 46.8618 38.2693 46.625 37.9271 46.5389V46.5604Z"
      fill="#263238" />
    <path
      d="M29.7386 51.0792C26.7241 51.0792 20.3959 46.2159 20.3959 38.598C20.3959 37.2637 19.5834 35.908 17.9159 35.413C16.569 35.0042 14.6448 34.4016 13.4262 34.337C10.4972 34.1433 10.6469 36.5966 10.7324 37.8877C11.0103 43.2891 13.3834 47.8513 17.2959 50.4338C18.9207 51.5096 20.8447 52.2414 23.111 52.6718C23.6456 52.7792 25.5483 53.1667 27.4724 53.1022C30.4441 52.973 30.7434 52.1122 30.7434 51.768C30.7434 51.316 30.4227 51.1008 29.7386 51.1008V51.0792Z"
      fill="#263238" />
    <path
      d="M54.4522 12.8598C53.241 12.5078 52.0137 12.1981 50.7751 11.93C49.0124 11.5485 47.2267 11.2514 45.4304 11.0374C41.0044 10.51 36.5155 10.4865 32.1538 10.9446C28.3098 11.3558 24.0194 12.3196 20.283 14.3016C16.393 16.3654 13.1035 19.5329 11.544 24.3298C11.2233 25.2982 10.6461 28.8489 14.024 29.7097C15.1144 29.9894 16.2261 30.4844 17.3805 30.6996C20.6731 31.3022 21.3785 28.1604 21.5709 27.5363C21.7634 26.9336 21.9772 26.3526 22.2338 25.7501C23.2812 23.4906 24.8419 21.5753 26.6165 20.0904C30.2938 16.9916 34.8689 15.5283 39.3158 14.8181C41.9026 14.4093 44.4895 14.2371 47.0765 14.3016C48.5381 14.3337 49.7571 14.3807 50.7751 14.4304C51.888 14.4848 52.7608 14.5423 53.4477 14.5871C55.505 14.7212 55.8946 14.7407 56.0772 14.2156C56.3765 13.3548 54.9655 12.989 54.4522 12.8598Z"
      fill="#263238" />
    <path
      d="M47.7616 25.1909C39.0816 25.1909 36.8153 29.5809 36.174 32.5074C35.8747 33.9278 36.7297 34.0354 37.5209 34.1861C38.6326 34.3797 39.5306 34.2076 39.9367 33.1316C41.1553 29.796 42.823 26.5251 48.1036 26.5251C48.638 26.5251 49.1084 26.1807 49.1084 25.8579C49.1084 25.5352 48.7663 25.1909 47.783 25.1909H47.7616Z"
      fill="#263238" />
  </g>
  <defs>
    <clipPath id="clip0_51_22">
      <rect width="310" height="63.7222" fill="white" />
    </clipPath>
  </defs>
</svg>
  