<svg width="20" height="20" viewBox="0 0 20 20" fill="none" xmlns="http://www.w3.org/2000/svg">
<rect width="20" height="20" fill="#263238"/>
<g clip-path="url(#clip0_1833_39)">
<path d="M12.4057 14.0042C12.0357 14.0042 11.7057 13.8902 11.4337 13.6652C11.1077 13.4012 10.8477 13.0082 10.8397 12.5442C10.8347 12.3102 11.0817 12.3102 11.0817 12.3102C11.0817 12.3102 11.4817 12.3052 11.6757 12.3052C11.8687 12.3102 11.9257 12.5892 11.9347 12.6592C12.0097 13.2872 12.3527 13.5612 12.6167 13.6852C12.7757 13.7602 12.7357 13.9942 12.4057 14.0042ZM9.08371 10.8142C8.75871 10.7742 8.27471 10.7402 7.96271 10.6602C7.45671 10.5322 7.46971 10.0612 7.49171 9.90815C7.55371 9.44715 7.71571 9.02215 7.96671 8.62515C8.27871 8.14015 8.72771 7.71415 9.30371 7.36815C10.3857 6.71915 11.8987 6.35815 13.5617 6.35815C14.7797 6.35815 16.0507 6.52115 16.0647 6.52115C16.1787 6.53615 16.2627 6.65015 16.2577 6.77915C16.2537 6.90715 16.1657 7.00615 16.0507 7.01615C15.8667 7.01115 15.6857 7.01115 15.5147 7.01115C13.8207 7.01115 12.6157 7.24915 11.7187 7.76415C10.8347 8.26915 10.2187 9.04115 9.80071 10.1852C9.75671 10.2842 9.61171 10.8732 9.08371 10.8142ZM10.5617 15.5352C9.72171 15.5352 8.92971 15.1592 8.32971 14.4742C7.82271 13.8942 7.51671 13.3082 7.45971 12.5582C7.42471 12.0672 7.63471 11.8972 7.91871 11.9272C8.11571 11.9472 8.72871 11.9772 9.07871 12.0522C9.34071 12.1072 9.51571 12.2582 9.55971 12.5682C9.79171 14.2192 10.7977 14.8692 11.3977 15.0092C11.5027 15.0342 11.5677 15.1042 11.5637 15.2292C11.5597 15.3492 11.4807 15.4502 11.3757 15.4702C11.1087 15.5152 10.8287 15.5352 10.5617 15.5352ZM8.16771 17.0002C7.57171 17.0002 6.98871 16.9022 6.82171 16.8712C6.12071 16.7422 5.53271 16.5202 5.02871 16.1892C3.82371 15.3992 3.09571 14.0052 3.00871 12.3532C2.98671 11.9602 2.93871 11.2122 3.84171 11.2682C4.21371 11.2892 4.80571 11.4752 5.22171 11.5992C5.73871 11.7492 5.98871 12.1622 5.98871 12.5702C5.98871 14.8982 8.02771 16.4372 8.91671 16.4372C9.29871 16.4372 9.15871 16.8612 8.99171 16.9072C8.69771 16.9902 8.32071 17.0002 8.16771 17.0002Z" fill="white"/>
<path d="M5.05275 10.1361C4.70075 10.0701 4.35675 9.91907 4.02175 9.83407C2.98575 9.56707 3.16275 8.48607 3.25875 8.19007C4.20275 5.31907 7.19575 4.35807 9.61075 4.10207C11.8847 3.86007 14.2647 4.04607 16.4817 4.68507C16.6627 4.73507 17.2228 4.87607 16.9008 5.22307C16.6978 5.43907 15.9088 5.21307 15.6978 5.19807C14.3978 5.09707 13.1107 5.08207 11.8147 5.28807C10.4437 5.50507 9.03375 5.95207 7.90075 6.89707C7.35375 7.35507 6.87375 7.93807 6.55175 8.62707C6.46775 8.80807 6.40175 8.98907 6.34475 9.17007C6.28775 9.36107 6.07175 10.3221 5.05275 10.1361ZM10.8527 10.6891C11.0467 9.79107 11.9087 8.36707 14.5787 8.46507C15.1907 8.48507 14.9107 8.91707 14.6087 8.90707C13.0987 8.85307 12.3837 9.86007 12.0077 10.8811C11.8877 11.2101 11.6117 11.2591 11.2667 11.2001C11.0247 11.1561 10.7617 11.1261 10.8527 10.6891Z" fill="white"/>
</g>
<defs>
<clipPath id="clip0_1833_39">
<rect width="14" height="13" fill="white" transform="translate(3 4)"/>
</clipPath>
</defs>
</svg>
