<?xml version="1.0" encoding="UTF-8"?>
<svg id="logo" xmlns="http://www.w3.org/2000/svg" width="145" height="30" viewBox="0 0 145 30">
    <path id="crowdin" shape-rendering="geometricPrecision" d="m106.01,21.18c-.59-.69-1.53-2.45-1.52-5.55,0-3.51,1.03-4.67,1.62-5.33,1.21-1.36,2.82-2.05,4.81-2.05,1.06,0,1.96.19,2.7.55.74.34,1.34.84,1.79,1.47V2h3.58v21h-3.41s-.21-.98-.37-1.64c-.38.36-1.08.98-1.62,1.25-.78.39-1.7.59-2.77.59-2.06,0-3.67-.67-4.82-2.02Zm1.73-5.45c0,1.19.3,2.22.89,2.87.59.65,1.55.97,2.89.97.92,0,1.72-.22,2.42-.66h.02c.91-.6,1.45-1.62,1.45-2.71v-.99c0-1.06-.51-2.06-1.38-2.65,0,0,0,0,0,0,0,0,0,0-.01,0-.65-.44-1.44-.66-2.38-.66-1.33,0-2.32.32-2.95.97-.63.64-.94,1.68-.94,2.87Zm-70.75.27c0,1.14.19,2.16.52,3.03s.83,1.61,1.5,2.29c1.88,1.88,4.97,2.45,7.57,1.79s4.71-2.55,4.63-5.6h-3.33c.08,1.44-1.19,2.17-2.65,2.34s-3.12-.22-3.82-1.01c-.41-.4-1.05-1.24-1.05-2.83,0-2.97.96-4.39,4.09-4.39.96,0,1.83.14,2.45.51s1,.97.99,1.88h1.66s1.66.01,1.66.01c-.08-3-2.2-4.94-4.77-5.65s-5.58-.17-7.44,1.78c-.68.67-1.17,1.38-1.51,2.3s-.52,2.02-.52,3.55Zm17,7h3.42v-7.16c0-1.55.74-2.36,1.36-2.79.62-.45,1.32-.67,2.11-.67.24,0,.47.01.67.04.21.03.4.06.58.1v-4.18c-.09-.04-.25-.08-.48-.12-.22-.05-.43-.07-.64-.07-.81,0-1.53.22-2.16.66-.57.39-1.03.86-1.38,1.39-.04.06-.12.03-.13-.03l-.3-1.66h-3.06v14.5Zm11.63-1.68c-.7-.67-1.23-1.37-1.58-2.23s-.53-1.86-.53-3.14.18-2.4.53-3.36.88-1.77,1.58-2.44c.7-.67,1.6-1.15,2.61-1.45s2.12-.44,3.26-.44,2.09.14,2.93.44,1.57.78,2.27,1.45c.71.67,1.28,1.57,1.68,2.59s.62,2.14.62,3.26h0c0,1.11-.22,2.11-.62,2.99s-.97,1.65-1.68,2.33c-.7.67-1.51,1.18-2.43,1.52s-1.95.51-3.1.51-2.18-.17-3.11-.51-1.74-.84-2.44-1.52Zm2.45-8.68c-.36.29-.63.66-.82,1.11s-.27.99-.27,1.62h0v.74c0,.65.09,1.2.27,1.66s.45.83.81,1.11c.36.27.8.48,1.32.61s1.12.2,1.79.2,1.27-.07,1.79-.21.95-.34,1.31-.61c.36-.28.63-.65.82-1.11s.27-1.02.27-1.66v-.74c0-.62-.09-1.16-.28-1.62s-.46-.83-.83-1.11c-.36-.29-.8-.5-1.31-.65s-1.1-.22-1.77-.22-1.26.07-1.78.22-.96.36-1.32.65Zm11.92-4.13l4.5,14.5h3.99l3.03-10.52c.03-.11.19-.11.23,0l3.25,10.53h4l4.17-14.5h-4.2l-2.12,8.05c-.09.36-.18.72-.26,1.08-.05.22-.12.58-.17.8-.01.05-.08.05-.09,0-.06-.26-.13-.52-.2-.8-.09-.36-.19-.72-.3-1.08l-2.36-8.05-4.02.04s-2.37,8.17-2.81,9.8c-.02.07-.12.07-.14,0l-2.5-9.84h-4Zm46.36,14.5v-14.5h-3.36v14.5h3.36Zm-4.1-18.39c0,.62.21,1.13.62,1.53.43.39,1.02.59,1.79.59s1.35-.2,1.76-.6c.43-.4.64-.91.64-1.51s-.21-1.1-.63-1.5c-.42-.4-1.01-.6-1.79-.6s-1.35.2-1.78.6c-.42.4-.62.9-.62,1.5Zm11.74,18.39h-3.53v-14.5s3.2,0,3.2,0c0,0,.22,1.55.26,1.77.49-.62,1.13-1.11,1.91-1.45.87-.38,1.82-.57,2.84-.57,1.55,0,2.82.41,3.82,1.24,1,.82,1.49,2.45,1.49,4.9v8.6h-3.38v-7.75c0-2.08-.54-3.56-3.07-3.56s-3.55,2-3.55,5.31v6Z" style="fill: #263238; fill-rule: evenodd; stroke-width: 0px;"/>
    <path id="bg" shape-rendering="geometricPrecision" d="m21.25,0h-12.6C6.05,0,3.88.86,2.37,2.37S0,6.05,0,8.65v12.6c0,2.66.86,4.84,2.38,6.37s3.71,2.38,6.37,2.38h12.5c2.66,0,4.84-.86,6.37-2.38s2.38-3.71,2.38-6.37v-12.5c0-2.66-.86-4.84-2.38-6.37s-3.71-2.38-6.37-2.38Z" style="fill: #263238; stroke-width: 0px;"/>
    <g id="sign">
        <path shape-rendering="geometricPrecision" d="m18.56,18.39c-.01-.11-.1-.53-.39-.54-.29,0-.9,0-.9,0,0,0-.37,0-.37.36.01.7.41,1.3.9,1.7.41.34.91.52,1.48.52h0c.5-.01.56-.37.32-.48-.4-.19-.92-.61-1.03-1.56Z" style="fill: #fff; stroke-width: 0px;"/>
        <path shape-rendering="geometricPrecision" d="m21.25,8.75c-2.52,0-5.04.61-6.68,1.6-.88.53-1.56,1.17-2.03,1.91-.38.6-.63,1.25-.72,1.95-.03.23-.05.95.71,1.14.47.12,1.21.17,1.7.23h0c.8.09,1.02-.8,1.09-.95.63-1.74,1.57-2.91,2.91-3.68,1.36-.78,3.19-1.14,5.76-1.14.34,0,1.13.04,1.13-.35,0-.7-3.4-.7-3.87-.7Z" style="fill: #fff; stroke-width: 0px;"/>
        <path shape-rendering="geometricPrecision" d="m17.74,21.96c-.91-.21-2.44-1.2-2.79-3.71-.07-.47-.33-.7-.73-.78-.53-.11-1.46-.16-1.76-.19-.43-.04-.75.21-.7.96.09,1.14.55,2.03,1.32,2.91.91,1.04,2.11,1.64,3.39,1.61h0c1.41-.03,1.51-.28,1.52-.47,0-.19-.09-.3-.25-.34Z" style="fill: #fff; stroke-width: 0px;"/>
        <path shape-rendering="geometricPrecision" d="m13.91,24.06c-1.41,0-4.37-2.26-4.37-5.8,0-.62-.38-1.25-1.16-1.48-.63-.19-1.53-.47-2.1-.5-1.37-.09-1.3,1.05-1.26,1.65.13,2.51,1.24,4.63,3.07,5.83.76.5,1.66.84,2.72,1.04.25.05,1.14.23,2.04.2h0c1.39-.06,1.53-.46,1.53-.62,0-.21-.15-.31-.47-.31Z" style="fill: #fff; stroke-width: 0px;"/>
        <path shape-rendering="geometricPrecision" d="m25.47,6.3c-3.36-.97-6.98-1.25-10.43-.89-3.67.39-8.21,1.85-9.64,6.22-.15.45-.42,2.1,1.16,2.5.51.13,1.03.36,1.57.46h0c1.54.28,1.87-1.18,1.96-1.47.09-.28.19-.55.31-.83.49-1.05,1.22-1.94,2.05-2.63,1.72-1.44,3.86-2.12,5.94-2.45,1.21-.19,2.42-.27,3.63-.24,3.67.08,4.07.36,4.21-.04.14-.4-.52-.57-.76-.63Z" style="fill: #fff; stroke-width: 0px;"/>
        <path shape-rendering="geometricPrecision" d="m22.34,12.03c-4.06,0-5.12,2.04-5.42,3.4-.14.66.26.71.63.78.52.09.94.01,1.13-.49.57-1.55,1.35-3.07,3.82-3.07.25,0,.47-.16.47-.31s-.16-.31-.62-.31Z" style="fill: #fff; stroke-width: 0px;"/>
    </g>
</svg>