<?xml version="1.0" encoding="UTF-8"?>
<svg version="1.1" xmlns="http://www.w3.org/2000/svg" width="86" height="84">
<path d="M0 0 C28.38 0 56.76 0 86 0 C86 27.72 86 55.44 86 84 C57.62 84 29.24 84 0 84 C0 56.28 0 28.56 0 0 Z " fill="#2A363B" transform="translate(0,0)"/>
<path d="M0 0 C28.38 0 56.76 0 86 0 C86 27.72 86 55.44 86 84 C57.62 84 29.24 84 0 84 C0 56.28 0 28.56 0 0 Z M11 8 C8.78258463 11.32612306 8.73684463 12.42752638 8.69360352 16.31005859 C8.67761612 17.3948349 8.66162872 18.47961121 8.64515686 19.59725952 C8.63979416 20.76914825 8.63443146 21.94103699 8.62890625 23.1484375 C8.61987778 24.35311676 8.6108493 25.55779602 8.60154724 26.79898071 C8.58702866 29.34936023 8.57815403 31.89977714 8.57446289 34.45019531 C8.56256751 38.35285181 8.51339417 42.25392737 8.46289062 46.15625 C8.45342666 48.63280477 8.4461915 51.10936927 8.44140625 53.5859375 C8.42187393 54.75377777 8.40234161 55.92161804 8.38221741 57.12484741 C8.21572486 63.74239763 8.21572486 63.74239763 11.40991211 69.21337891 C14.93994609 71.648367 16.66701717 72.13070745 20.90527344 72.17700195 C22.43761627 72.19625481 22.43761627 72.19625481 24.00091553 72.21589661 C25.10920715 72.22328354 26.21749878 72.23067047 27.359375 72.23828125 C29.0650766 72.25038887 29.0650766 72.25038887 30.80523682 72.26274109 C33.21617097 72.27659098 35.62712481 72.28730907 38.03808594 72.29516602 C41.7210828 72.31236496 45.40317903 72.3562429 49.0859375 72.40039062 C51.42707672 72.41051853 53.76822359 72.41903433 56.109375 72.42578125 C57.2095697 72.44328934 58.3097644 72.46079742 59.44329834 72.47883606 C65.58922603 72.46144983 69.36220912 72.19598028 74 68 C75.26887439 65.46225123 75.1547131 63.64459409 75.19287109 60.8034668 C75.21696548 59.17618904 75.21696548 59.17618904 75.24154663 57.51603699 C75.28592603 52.55244515 75.32705826 47.58898788 75.35009766 42.62524414 C75.36666582 40.00536217 75.39396669 37.38552555 75.43212891 34.76586914 C75.48681941 30.99341318 75.50876071 27.22201746 75.5234375 23.44921875 C75.55744156 21.69275276 75.55744156 21.69275276 75.59213257 19.90080261 C75.78273867 13.26962355 75.78273867 13.26962355 72.59228516 7.78442383 C69.04996584 5.34603507 67.32990498 4.87096682 63.07885742 4.83886719 C62.05406784 4.82925964 61.02927826 4.8196521 59.97343445 4.80975342 C58.86200577 4.80550354 57.75057709 4.80125366 56.60546875 4.796875 C54.89620964 4.78832489 54.89620964 4.78832489 53.15242004 4.77960205 C50.73728364 4.77014231 48.32213428 4.76361422 45.90698242 4.75976562 C42.2131493 4.75006734 38.51987414 4.71905536 34.82617188 4.6875 C32.48177414 4.68096939 30.13737243 4.67571915 27.79296875 4.671875 C26.68761276 4.6595282 25.58225677 4.6471814 24.44340515 4.63446045 C23.40915909 4.63746155 22.37491302 4.64046265 21.30932617 4.64355469 C20.40268723 4.63990906 19.49604828 4.63626343 18.56193542 4.63250732 C15.41265703 5.08425046 13.56313144 6.13873866 11 8 Z " fill="#FCFDFD" transform="translate(0,0)"/>
<path d="M0 0 C0 0.33 0 0.66 0 1 C-1.79244141 1.05607422 -1.79244141 1.05607422 -3.62109375 1.11328125 C-19.77383257 1.55581733 -19.77383257 1.55581733 -33 10 C-34.75072715 13.08333587 -34.75072715 13.08333587 -36 16 C-36.66 16.66 -37.32 17.32 -38 18 C-43.45454545 17.54545455 -43.45454545 17.54545455 -46 15 C-45.85988371 11.28691832 -45.35255662 8.64379905 -43.5625 5.375 C-31.76611999 -5.55823025 -14.3702346 -5.0191256 0 0 Z " fill="#F4F5F5" transform="translate(66,24)"/>
<path d="M0 0 C6.6 0.6 6.6 0.6 9 3 C9.4921875 5.0234375 9.4921875 5.0234375 9.875 7.375 C10.69582275 11.36368557 11.55548336 13.56857649 15 16 C17.1381966 16.7872678 17.1381966 16.7872678 19 17 C19 17.66 19 18.32 19 19 C8.18217372 19.56714817 8.18217372 19.56714817 4 16 C-0.70948999 10.63641417 -1.22097935 7.96084955 -1 1 C-0.67 0.67 -0.34 0.34 0 0 Z " fill="#F2F3F3" transform="translate(21,45)"/>
<path d="M0 0 C1.03253906 0.01353516 1.03253906 0.01353516 2.0859375 0.02734375 C3.76577838 0.05067487 5.44543746 0.08653674 7.125 0.125 C7.455 0.785 7.785 1.445 8.125 2.125 C7.17238281 2.22296875 6.21976563 2.3209375 5.23828125 2.421875 C3.98402344 2.57140625 2.72976562 2.7209375 1.4375 2.875 C0.19613281 3.01421875 -1.04523437 3.1534375 -2.32421875 3.296875 C-6.92410876 4.36967663 -9.51275051 6.20457951 -12.23828125 10.046875 C-12.55152344 10.65015625 -12.86476563 11.2534375 -13.1875 11.875 C-13.744375 12.9475 -14.30125 14.02 -14.875 15.125 C-16.525 15.125 -18.175 15.125 -19.875 15.125 C-21.0625 13.4375 -21.0625 13.4375 -21.875 11.125 C-19.74575468 6.115011 -16.18320783 3.07860995 -11.19921875 1.01953125 C-7.40290288 -0.00203906 -3.89339194 -0.09808933 0 0 Z " fill="#F0F1F2" transform="translate(55.875,28.875)"/>
<path d="M0 0 C2.31 0 4.62 0 7 0 C7.25394531 0.54269531 7.50789063 1.08539063 7.76953125 1.64453125 C8.11371094 2.35996094 8.45789062 3.07539062 8.8125 3.8125 C9.14894531 4.52019531 9.48539063 5.22789063 9.83203125 5.95703125 C11.00645471 8.01129035 12.25628016 9.41616278 14 11 C10.93113786 11.96449953 9.4513303 12.18713695 6.4375 10.9375 C3.50463372 8.60624732 1.83205725 6.25699067 0 3 C0 2.01 0 1.02 0 0 Z " fill="#E9EBEB" transform="translate(34,48)"/>
<path d="M0 0 C0 0.66 0 1.32 0 2 C-1.093125 2.226875 -2.18625 2.45375 -3.3125 2.6875 C-7.53698235 4.19112931 -7.99636712 5.19309753 -10 9 C-10.99 9 -11.98 9 -13 9 C-12.71897086 5.62765029 -12.19628348 4.21360261 -9.875 1.6875 C-6.35183346 -0.38044558 -4.01922848 -0.31523361 0 0 Z " fill="#E4E5E6" transform="translate(59,36)"/>
</svg>
