<svg xmlns="http://www.w3.org/2000/svg" width="20" height="20">
  <rect width="20" height="20" fill="#F7F2F1"/>
  <path d="M 8.658 6.2 C 9.174 5.672 9.893 5.344 10.687 5.344 C 11.743 5.344 12.665 5.923 13.156 6.781 C 13.582 6.594 14.054 6.49 14.551 6.49 C 16.456 6.49 18 8.02 18 9.908 C 18 11.795 16.456 13.325 14.551 13.325 C 14.322 13.326 14.095 13.303 13.871 13.259 C 13.439 14.016 12.616 14.528 11.67 14.528 C 11.275 14.528 10.901 14.438 10.567 14.278 C 10.129 15.29 9.109 16 7.919 16 C 6.68 16 5.625 15.23 5.219 14.15 C 5.042 14.187 4.859 14.207 4.671 14.207 C 3.196 14.207 2 13.02 2 11.556 C 2 10.575 2.537 9.719 3.335 9.26 C 3.171 8.889 3.08 8.479 3.08 8.048 C 3.08 6.365 4.471 5 6.187 5 C 7.195 5 8.09 5.471 8.658 6.2" fill="rgb(0,161,224)"></path>
</svg>
