<svg xmlns="http://www.w3.org/2000/svg" fill="none" viewBox="0 0 254 102">
  <path fill="#fff" d="M222.98 64.598c-6.302 0-10.488-2.944-10.488-7.268h6.992c0 1.518 1.472 2.576 3.634 2.576 1.518 0 2.576-.736 2.576-2.024 0-1.012-.506-1.61-2.392-2.07l-4.646-1.15c-3.542-.874-5.566-3.128-5.566-6.486 0-4.186 3.772-6.946 9.476-6.946 6.256 0 9.89 2.438 9.89 6.854h-6.946c0-1.564-1.15-2.392-3.036-2.392-1.518 0-2.53.736-2.53 1.794 0 1.012.644 1.656 2.438 2.116l4.692 1.288c3.496.92 5.612 3.036 5.612 6.394 0 4.6-3.818 7.314-9.706 7.314ZM195.958 64h-7.038V41.828h7.038v3.22c1.288-2.484 3.818-3.818 7.176-3.818 5.382 0 8.096 3.036 8.096 9.062V64h-7.084V52.592c0-3.726-1.058-5.428-3.91-5.428-2.806 0-4.278 1.84-4.278 5.244V64Zm-13.169-24.104c-2.53 0-4.324-1.932-4.324-4.278 0-2.392 1.794-4.324 4.324-4.324s4.37 1.932 4.37 4.324c0 2.346-1.84 4.278-4.37 4.278ZM186.285 64h-6.992V41.828h6.992V64Zm-16.607-18.998v-3.174h7.038v20.746c-.046 4.278-1.564 7.452-4.278 9.338-2.024 1.426-4.738 1.978-7.912 1.978-3.174 0-5.842-.506-8.004-1.794-2.254-1.38-3.864-3.772-3.956-6.164h7.176c.322 1.748 1.84 2.806 4.692 2.806 3.266 0 5.244-1.426 5.244-5.382v-2.944C168.574 62.62 165.63 64 162.732 64c-6.578 0-10.534-4.784-10.534-11.316 0-6.532 4.232-11.454 10.626-11.454 3.036 0 5.75 1.472 6.854 3.772Zm-5.014 13.57c3.358 0 5.336-2.576 5.336-5.796s-1.978-5.796-5.336-5.796c-3.174 0-5.244 2.438-5.244 5.796s2.07 5.796 5.244 5.796Zm-27.81 6.026c-5.336 0-8.188-3.312-8.188-9.062V41.828h7.13v12.144c0 3.036 1.012 4.692 3.68 4.692 2.99 0 4.278-1.932 4.278-4.922V41.828h6.992V64h-6.992v-3.174c-1.242 2.346-3.542 3.772-6.9 3.772ZM126.306 64h-7.038V31.8h7.038V64ZM92.128 31.8h13.708c6.716 0 11.546 4.876 11.546 11.638s-4.876 11.638-11.546 11.638H99.58V64h-7.452V31.8Zm7.452 17.204h5.106c2.99 0 5.152-2.346 5.152-5.566 0-3.22-2.162-5.566-5.152-5.566H99.58v11.132Z"/>
  <g clip-path="url(#a)">
    <path fill="#fff" d="M16 18h44v22H38l22 22H38v22L16 62V40h22L16 18Z"/>
  </g>
  <defs>
    <clipPath id="a">
      <path fill="#fff" d="M16 18h44v66H16z"/>
    </clipPath>
  </defs>
</svg>
