<svg width="30" height="30" viewBox="0 0 30 30" fill="none" xmlns="http://www.w3.org/2000/svg">
  <path d="M0 0H30V30H0V0Z" fill="#15372B" />
  <path
    d="M18.735 10.726C18.735 11.737 18.307 12.632 17.607 13.333C16.829 14.111 15.7 14.305 15.7 14.967C15.7 15.862 17.14 15.589 18.521 16.971C19.436 17.885 20 19.091 20 20.492C20 23.255 17.782 25.453 15 25.453C12.218 25.453 10 23.255 10 20.494C10 19.091 10.564 17.885 11.479 16.971C12.86 15.589 14.3 15.862 14.3 14.967C14.3 14.305 13.171 14.111 12.393 13.333C11.693 12.632 11.265 11.737 11.265 10.687C11.265 8.663 12.918 7.029 14.942 7.029C15.331 7.029 15.681 7.088 15.973 7.088C16.498 7.088 16.77 6.854 16.77 6.484C16.77 6.27 16.673 5.998 16.673 5.706C16.673 5.045 17.237 4.5 17.918 4.5C18.599 4.5 19.144 5.064 19.144 5.745C19.144 6.465 18.58 6.796 18.152 6.951C17.802 7.068 17.529 7.224 17.529 7.574C17.529 8.235 18.735 8.877 18.735 10.726ZM18.346 20.494C18.346 18.568 16.926 17.012 15 17.012C13.074 17.012 11.654 18.568 11.654 20.494C11.654 22.401 13.074 23.977 15 23.977C16.926 23.977 18.346 22.399 18.346 20.494ZM17.198 10.687C17.198 9.461 16.206 8.449 15 8.449C13.794 8.449 12.802 9.461 12.802 10.687C12.802 11.912 13.794 12.924 15 12.924C16.206 12.924 17.198 11.912 17.198 10.687Z"
    fill="white" />
</svg>