<svg width="30" height="30" viewBox="0 0 30 30" fill="none" xmlns="http://www.w3.org/2000/svg">
  <path d="M0 0H30V30H0V0Z" fill="#0099FF" />
  <path
    d="M9.5 5C11.985 5 14 7.015 14 9.5C14 11.985 11.985 14 9.5 14C7.015 14 5 11.985 5 9.5C5 7.015 7.015 5 9.5 5Z"
    fill="white" />
  <path
    d="M9.5 16C11.985 16 14 18.015 14 20.5C14 22.985 11.985 25 9.5 25C7.015 25 5 22.985 5 20.5C5 18.015 7.015 16 9.5 16Z"
    fill="#ADD6FF" />
  <path
    d="M20.5 5C22.985 5 25 7.015 25 9.5C25 11.985 22.985 14 20.5 14C18.015 14 16 11.985 16 9.5C16 7.015 18.015 5 20.5 5Z"
    fill="white" />
  <path
    d="M20.5 16C22.985 16 25 18.015 25 20.5C25 22.985 22.985 25 20.5 25C18.015 25 16 22.985 16 20.5C16 18.015 18.015 16 20.5 16Z"
    fill="#ADD6FF" />
</svg>