<svg width="30" height="30" viewBox="0 0 30 30" fill="none" xmlns="http://www.w3.org/2000/svg">
  <path
    d="M14.0676 8.19124L7.34064 10.9742C6.96664 11.1292 6.97064 11.6602 7.34764 11.8092L14.1016 14.4882C14.6956 14.7232 15.3556 14.7232 15.9496 14.4882L22.7036 11.8092C23.0806 11.6602 23.0846 11.1292 22.7106 10.9742L15.9836 8.19024C15.3706 7.93724 14.6806 7.93724 14.0676 8.19024"
    fill="#FCB400" />
  <path
    d="M15.5703 15.8393V22.5313C15.5703 22.8493 15.8913 23.0673 16.1873 22.9503L23.7133 20.0283C23.8853 19.9603 23.9983 19.7943 23.9983 19.6093V12.9183C23.9983 12.6003 23.6773 12.3823 23.3813 12.4993L15.8553 15.4213C15.6833 15.4893 15.5703 15.6543 15.5703 15.8393Z"
    fill="#18BFFF" />
  <path
    d="M13.856 16.156L11.622 17.235L11.396 17.345L6.68 19.604C6.382 19.748 6 19.53 6 19.198V12.918C6 12.798 6.062 12.694 6.144 12.616C6.178 12.582 6.217 12.553 6.258 12.53C6.371 12.463 6.532 12.445 6.668 12.499L13.819 15.332C14.182 15.476 14.211 15.985 13.856 16.157"
    fill="#F82B60" />
  <path
    d="M13.9268 16.156L11.6928 17.235L6.21484 12.616C6.24884 12.582 6.28684 12.553 6.32884 12.53C6.44184 12.463 6.60284 12.445 6.73884 12.499L13.8888 15.332C14.2528 15.476 14.2808 15.985 13.9268 16.157"
    fill="black" fill-opacity="0.25" />
</svg>