<svg xmlns="http://www.w3.org/2000/svg" width="20" height="20">
  <path d="M 0 0 L 20 0 L 20 20 L 0 20 Z" fill="rgb(255, 92, 53)"/>
  <path d="M 13.171 13.62 C 12.086 13.62 11.207 12.737 11.207 11.648 C 11.207 10.558 12.086 9.676 13.171 9.676 C 14.255 9.676 15.134 10.558 15.134 11.648 C 15.134 12.737 14.255 13.62 13.171 13.62 M 13.759 7.851 L 13.759 6.096 C 14.215 5.88 14.534 5.416 14.534 4.878 L 14.534 4.838 C 14.534 4.096 13.929 3.489 13.191 3.489 L 13.15 3.489 C 12.412 3.489 11.807 4.096 11.807 4.838 L 11.807 4.878 C 11.807 5.416 12.127 5.88 12.583 6.096 L 12.583 7.851 C 11.92 7.952 11.296 8.228 10.772 8.651 L 5.976 4.904 C 6.008 4.782 6.03 4.656 6.031 4.524 C 6.031 3.683 5.354 3.001 4.517 3 C 3.68 2.999 3.001 3.679 3 4.52 C 2.999 5.361 3.676 6.042 4.513 6.044 C 4.786 6.044 5.038 5.966 5.26 5.84 L 9.977 9.527 C 9.562 10.154 9.34 10.892 9.341 11.648 C 9.341 12.469 9.599 13.229 10.036 13.853 L 8.6 15.295 C 8.485 15.258 8.365 15.239 8.244 15.237 C 7.557 15.237 7 15.797 7 16.487 C 7 17.178 7.557 17.737 8.244 17.737 C 8.932 17.737 9.49 17.177 9.49 16.487 C 9.488 16.365 9.469 16.245 9.432 16.129 L 10.851 14.704 C 11.518 15.218 12.333 15.495 13.17 15.495 C 15.286 15.495 17 13.773 17 11.648 C 17 9.724 15.593 8.135 13.758 7.851" fill="rgb(255, 255, 255)"/>
</svg>
