<svg width="30" height="30" viewBox="0 0 30 30" fill="none" xmlns="http://www.w3.org/2000/svg">
  <path d="M0 0H30V30H0V0Z" fill="#FF5C36" />
  <path
    d="M20.3559 11.8941V9.40111C21.0289 9.08611 21.4599 8.41311 21.4629 7.67011V7.61311C21.4629 6.55311 20.6039 5.69311 19.5429 5.69311H19.4859C18.4259 5.69311 17.5659 6.55311 17.5659 7.61311V7.67011C17.5689 8.41311 17.9999 9.08611 18.6729 9.40111V11.8941C17.7259 12.0391 16.8339 12.4321 16.0879 13.0321L9.24887 7.70611C9.29787 7.53011 9.32387 7.34911 9.32687 7.16811C9.32787 6.29211 8.80287 5.50311 7.99487 5.16611C7.18687 4.83011 6.25587 5.01311 5.63587 5.63111C5.01587 6.24911 4.82987 7.17911 5.16387 7.98811C5.49687 8.79711 6.28487 9.32511 7.15987 9.32711C7.53487 9.32511 7.90187 9.22511 8.22587 9.03711L14.9589 14.2771C13.7219 16.1471 13.7549 18.5841 15.0429 20.4201L12.9949 22.4691C12.8289 22.4161 12.6569 22.3881 12.4829 22.3851C11.5019 22.3861 10.7079 23.1811 10.7079 24.1621C10.7079 25.1431 11.5029 25.9381 12.4839 25.9381C13.4649 25.9391 14.2599 25.1441 14.2609 24.1631C14.2589 23.9891 14.2309 23.8171 14.1779 23.6511L16.2039 21.6251C18.0139 23.0181 20.4999 23.1381 22.4369 21.9261C24.3729 20.7131 25.3499 18.4231 24.8859 16.1861C24.4219 13.9491 22.6149 12.2371 20.3559 11.8941ZM19.5159 20.0951C18.4969 20.1231 17.5429 19.5951 17.0249 18.7161C16.5069 17.8381 16.5069 16.7481 17.0249 15.8691C17.5429 14.9911 18.4969 14.4631 19.5159 14.4911C21.0249 14.5441 22.2209 15.7811 22.2209 17.2911C22.2219 18.8001 21.0279 20.0391 19.5189 20.0931"
    fill="white" />
</svg>