<svg width="30" height="30" viewBox="0 0 30 30" fill="none" xmlns="http://www.w3.org/2000/svg">
  <path d="M0 0H30V30H0V0Z" fill="#ADE63B" />
  <path
    d="M23.4521 7.202C23.4311 6.85 23.1501 6.568 22.7981 6.548C16.1791 6.159 10.8761 8.152 8.61607 11.891C7.83207 13.17 7.44607 14.653 7.50607 16.152C7.54507 17.11 7.74007 18.056 8.08307 18.951C8.12407 19.063 8.22007 19.147 8.33707 19.172C8.45307 19.197 8.57507 19.161 8.65807 19.076L16.0491 11.572C16.3211 11.3 16.7611 11.3 17.0331 11.572C17.3051 11.844 17.3051 12.284 17.0331 12.556L8.95607 20.755L7.72307 21.989C7.45707 22.248 7.43407 22.667 7.67007 22.954C7.79707 23.1 7.97807 23.187 8.17107 23.194C8.36507 23.201 8.55207 23.128 8.68907 22.991L10.1491 21.531C11.3781 22.126 12.6191 22.45 13.8491 22.494C13.9461 22.497 14.0421 22.499 14.1391 22.499C15.5401 22.502 16.9141 22.117 18.1091 21.384C21.8481 19.124 23.8411 13.822 23.4521 7.202Z"
    fill="white" />
</svg>