<svg width="30" height="30" viewBox="0 0 30 30" fill="none" xmlns="http://www.w3.org/2000/svg">
    <path d="M0 0H30V30H0V0Z" fill="#0099FF" />
    <path
        d="M8 9.648C8 7.829 9.475 6.354 11.294 6.354H12.941C13.851 6.354 14.588 7.091 14.588 8.001V12.119C14.588 13.028 15.326 13.766 16.235 13.766H20.353C21.263 13.766 22 14.503 22 15.413V20.354C22 22.173 20.525 23.648 18.706 23.648H11.294C9.475 23.648 8 22.173 8 20.354V9.648Z"
        fill="white" fill-opacity="0.3" stroke="white" stroke-width="2.47"
        stroke-miterlimit="10" />
    <path
        d="M12.5273 6.354H14.4583C15.3313 6.354 16.1693 6.701 16.7873 7.319L21.0333 11.565C21.6513 12.183 21.9983 13.021 21.9983 13.894V15.825"
        stroke="white" stroke-width="2.47" stroke-miterlimit="10" />
</svg>
    