<svg xmlns="http://www.w3.org/2000/svg" width="30" height="30" fill="none"><path d="M 0 0 L 30 0 L 30 30 L 0 30 Z" fill="#0088ee"></path><path d="M 10.59 13.594 C 12.117 13.312 13.312 12.117 13.594 10.59 L 14.148 7.602 C 14.323 6.657 15.677 6.657 15.852 7.602 L 16.406 10.59 C 16.688 12.117 17.883 13.312 19.41 13.594 L 22.398 14.148 C 23.343 14.323 23.343 15.677 22.398 15.852 L 19.41 16.406 C 17.883 16.688 16.688 17.883 16.406 19.41 L 15.852 22.398 C 15.677 23.343 14.323 23.343 14.148 22.398 L 13.594 19.41 C 13.312 17.883 12.117 16.688 10.59 16.406 L 7.602 15.852 C 6.657 15.677 6.657 14.323 7.602 14.148 Z" fill="rgb(255, 255, 255)"></path></svg>