<svg xmlns="http://www.w3.org/2000/svg" width="30" height="30" fill="none" viewBox="0 0 30 30"><path d="M 0 0 L 30 0 L 30 30 L 0 30 Z" fill="#222"></path><path d="M 9.792 7.898 C 9.671 7.733 9.789 7.5 9.993 7.5 L 17.232 7.5 C 17.4 7.5 17.556 7.584 17.648 7.723 L 22.241 14.611 C 22.352 14.777 22.233 15 22.033 15 L 15 15 Z" fill="rgb(255, 255, 255)"></path><path d="M 7.759 15.389 C 7.648 15.223 7.767 15 7.967 15 L 15 15 L 20.208 22.102 C 20.329 22.267 20.211 22.5 20.007 22.5 L 12.768 22.5 C 12.6 22.5 12.444 22.416 12.352 22.277 Z" fill="rgb(255, 255, 255)"></path></svg>