<svg width="30" height="30" viewBox="0 0 30 30" fill="none" xmlns="http://www.w3.org/2000/svg">
  <path d="M0 0H30V30H0V0Z" fill="#0099FF" />
  <path
    d="M14.4092 6.5C17.1832 6.5 19.7542 7.954 21.1832 10.331C22.6122 12.708 22.6912 15.661 21.3902 18.11C21.1402 18.571 21.2212 19.141 21.5912 19.513L24.1532 22.076C24.6162 22.539 24.6162 23.289 24.1532 23.752C23.6902 24.215 22.9402 24.215 22.4772 23.752L20.0242 21.299C19.6352 20.91 19.0302 20.84 18.5622 21.13C15.7102 22.892 12.0562 22.664 9.44617 20.561C6.83517 18.457 5.83517 14.935 6.95117 11.774C8.06717 8.612 11.0572 6.498 14.4092 6.5ZM8.87717 14.404C8.87717 17.459 11.3542 19.936 14.4092 19.936C17.4652 19.936 19.9422 17.459 19.9422 14.404C19.9422 11.348 17.4652 8.871 14.4092 8.871C11.3542 8.871 8.87717 11.348 8.87717 14.404Z"
    fill="white" />
</svg>