<svg width="11" height="11" viewBox="0 0 12 12">
  <g stroke="none" stroke-width="1" fill="none" fill-rule="evenodd">
    <g fill="#999999" fill-rule="nonzero">
      <path
        d="M5.27067091,0 C8.18113539,0 10.5413418,2.4132031 10.5413418,5.38901987 C10.5413418,6.51640283 10.2029648,7.56295049 9.62424509,8.42734928 L11.768354,10.6206804 C12.0772153,10.9353991 12.0772153,11.447356 11.768354,11.7631526 C11.4594927,12.0789491 10.958779,12.0789491 10.6509718,11.7631526 L8.54586582,9.61185584 C7.64668936,10.3415291 6.50822444,10.7780397 5.27067091,10.7780397 C2.36020643,10.7780397 0,8.36483665 0,5.38901987 C0,2.4132031 2.36020643,0 5.27067091,0 Z M1.58120127,5.38901987 C1.58120127,7.47241495 3.23302954,9.16133378 5.27067091,9.16133378 C7.30831229,9.16133378 8.96014055,7.47241495 8.96014055,5.38901987 C8.96014055,3.30562479 7.30831229,1.61670596 5.27067091,1.61670596 C3.23302954,1.61670596 1.58120127,3.30562479 1.58120127,5.38901987 Z"
        id="Shape"></path>
    </g>
  </g>
</svg>
