<svg width="30" height="30" viewBox="0 0 30 30" fill="none" xmlns="http://www.w3.org/2000/svg">
<rect width="30" height="30" fill="white"/>
<path d="M23.0142 7.33043C23.6435 7.25852 23.7826 6.62926 23.6435 6L18.8252 6.28083C18.1276 6.34915 17.5692 6.90901 17.7094 7.67958L19.5242 7.88813V17.5356L12.4046 6.6307L7.23854 6.97841C6.2605 7.04888 5.91171 7.95753 6.05194 8.58679L7.79696 8.7281V22.4999L6.53953 22.8486C6.05158 22.9878 5.91135 23.6865 6.05158 23.9669L10.8663 23.6875C12.6128 23.6875 12.6128 22.429 12.6128 22.429L10.4481 21.9389V11.5231L17.2908 22.2888L17.2917 22.2898C18.1278 23.3368 18.407 23.6865 19.5238 23.6865C20.2228 23.6865 21.0592 23.4071 21.9678 22.918V7.53791L23.0142 7.33043Z" fill="black"/>
</svg>
