<svg xmlns="http://www.w3.org/2000/svg" width="30" height="30">
  <path d="M 0 0 L 30 0 L 30 30 L 0 30 Z" fill="rgb(68, 221, 221)"/>
  <path d="M 12.164 12.363 C 14.353 12.075 16.075 10.352 16.362 8.163 L 16.761 5.125 C 16.875 4.261 18.125 4.261 18.239 5.125 L 18.638 8.163 C 18.924 10.352 20.647 12.075 22.836 12.363 L 25.875 12.762 C 26.739 12.874 26.739 14.125 25.875 14.238 L 22.836 14.637 C 20.647 14.925 18.924 16.648 18.638 18.837 L 18.239 21.874 C 18.125 22.738 16.875 22.738 16.761 21.874 L 16.362 18.837 C 16.075 16.648 14.353 14.925 12.164 14.637 L 9.125 14.238 C 8.261 14.125 8.261 12.874 9.125 12.762 Z" fill="rgb(255,255,255)"/>
  <path d="M 6.299 20.923 C 7.128 20.778 7.779 20.128 7.923 19.297 L 8.091 18.34 C 8.171 17.883 8.829 17.883 8.909 18.34 L 9.077 19.297 C 9.222 20.128 9.872 20.778 10.703 20.923 L 11.66 21.091 C 12.117 21.171 12.117 21.829 11.66 21.909 L 10.703 22.077 C 9.872 22.221 9.222 22.872 9.077 23.701 L 8.909 24.658 C 8.829 25.117 8.171 25.117 8.091 24.658 L 7.923 23.701 C 7.779 22.871 7.129 22.221 6.299 22.077 L 5.342 21.909 C 4.883 21.829 4.883 21.171 5.342 21.091 Z" fill="rgb(255,255,255)"/>
</svg>
