<?xml version="1.0" encoding="UTF-8"?>
<svg viewBox="0 0 30 30" version="1.1" xmlns="http://www.w3.org/2000/svg" xmlns:xlink="http://www.w3.org/1999/xlink">
    <g id="icon" stroke="none" stroke-width="1" fill="none" fill-rule="evenodd">
        <rect fill="#FFC138" x="0" y="0" width="30" height="30"></rect>
        <rect id="Rectangle" fill-opacity="0" fill="#FFFFFF" x="9" y="9" width="12" height="12" rx="1"></rect>
        <path d="M20,7 C21.6568542,7 23,8.34314575 23,10 L23,20 C23,21.6568542 21.6568542,23 20,23 L10,23 C8.34314575,23 7,21.6568542 7,20 L7,10 C7,8.34314575 8.34314575,7 10,7 L20,7 Z M20,9 L10,9 C9.44771525,9 9,9.44771525 9,10 L9,20 C9,20.5522847 9.44771525,21 10,21 L20,21 C20.5522847,21 21,20.5522847 21,20 L21,10 C21,9.44771525 20.5522847,9 20,9 Z" id="Rectangle" fill="#000000" fill-rule="nonzero"></path>
        <rect id="Rectangle" fill="#FFC138" x="13" y="5" width="12" height="11"></rect>
        <g id="Group" transform="translate(15, 6)" fill="#000000" fill-rule="nonzero">
            <path d="M1.7430873,0 L8.7430873,0 L8.7430873,7 C8.7430873,7.552 8.2950873,8 7.7430873,8 C7.1910873,8 6.7430873,7.552 6.7430873,7 L6.7430873,2 L1.7430873,2 C1.1910873,2 0.743087297,1.552 0.743087297,1 C0.743087297,0.448 1.1910873,0 1.7430873,0 Z" id="Path"></path>
            <path d="M2.8890873,0.354 L4.8890873,0.354 L4.8890873,8.354 C4.8890873,8.906 4.4410873,9.354 3.8890873,9.354 L3.8890873,9.354 C3.3370873,9.354 2.8890873,8.906 2.8890873,8.354 L2.8890873,0.354 Z" id="Path" transform="translate(3.8891, 4.854) rotate(45) translate(-3.8891, -4.854)"></path>
        </g>
    </g>
</svg>
