<svg xmlns="http://www.w3.org/2000/svg" width="30" height="30">
    <path d="M 0 0 L 30 0 L 30 30 L 0 30 Z" fill="rgb(234, 76, 137)"></path>
    <path
        d="M 6 14.998 C 6 10.031 10.028 6 15 6 C 19.972 6 24 10.035 24 15.002 C 24 19.969 19.972 24 15 24 L 14.27 24 L 14.27 23.968 C 9.643 23.596 6 19.72 6 14.999 Z M 15.224 22.537 C 19.285 22.419 22.54 19.088 22.54 15.002 C 22.54 10.84 19.164 7.46 15 7.46 C 10.835 7.46 7.46 10.837 7.46 14.998 C 7.46 19.16 10.838 22.537 15 22.537 Z"
        fill="rgb(255, 255, 255)"
    ></path>
    <path
        d="M 11.4 8.326 C 11.296 8.294 11.192 8.26 11.088 8.226 L 11.558 6.843 C 11.601 6.858 11.679 6.883 11.769 6.911 C 11.932 6.963 12.136 7.029 12.258 7.073 L 12.265 7.075 L 12.271 7.078 L 12.378 7.118 C 12.567 7.189 12.8 7.278 12.994 7.368 L 13.003 7.373 L 13.042 7.392 C 13.133 7.435 13.271 7.5 13.385 7.555 L 13.544 7.63 L 13.562 7.639 L 13.579 7.648 L 13.593 7.655 C 13.632 7.676 13.705 7.715 13.776 7.759 L 13.796 7.771 L 13.801 7.774 C 13.823 7.787 13.845 7.8 13.868 7.812 L 13.875 7.815 L 13.894 7.827 L 13.895 7.827 L 13.916 7.839 L 13.954 7.861 C 14.005 7.89 14.087 7.937 14.163 7.981 C 14.242 8.027 14.361 8.098 14.45 8.16 C 14.545 8.218 14.649 8.29 14.719 8.338 L 14.753 8.362 C 14.806 8.394 14.858 8.431 14.895 8.458 C 14.971 8.513 15.047 8.569 15.122 8.626 L 15.2 8.685 C 15.224 8.703 15.249 8.721 15.273 8.739 L 15.292 8.751 L 15.311 8.765 C 16.115 9.379 16.834 10.098 17.446 10.904 L 17.447 10.905 L 17.448 10.905 C 18.124 11.797 18.658 12.789 19.03 13.845 C 20.134 16.93 19.809 20.494 18.074 23.308 L 16.831 22.541 C 18.327 20.117 18.615 17.016 17.655 14.336 L 17.654 14.333 L 17.653 14.331 C 17.332 13.417 16.87 12.559 16.284 11.788 C 15.755 11.092 15.135 10.47 14.441 9.938 C 14.402 9.91 14.363 9.882 14.325 9.853 L 14.237 9.787 L 14.178 9.742 C 14.128 9.705 14.082 9.671 14.044 9.644 C 14.011 9.62 13.997 9.611 13.997 9.611 L 13.975 9.599 L 13.95 9.582 C 13.913 9.557 13.88 9.533 13.849 9.512 C 13.792 9.472 13.734 9.433 13.675 9.397 L 13.639 9.376 L 13.606 9.351 C 13.608 9.352 13.608 9.352 13.605 9.35 C 13.599 9.347 13.585 9.337 13.556 9.319 C 13.513 9.292 13.469 9.266 13.425 9.24 C 13.356 9.2 13.294 9.164 13.244 9.136 L 13.184 9.102 L 13.182 9.101 L 13.17 9.094 L 13.165 9.091 C 13.13 9.072 13.096 9.053 13.062 9.033 C 13.043 9.022 13.023 9.01 13.005 8.998 C 12.972 8.979 12.939 8.961 12.905 8.943 L 12.903 8.942 L 12.741 8.865 C 12.633 8.813 12.525 8.762 12.416 8.711 L 12.407 8.707 L 12.368 8.687 C 12.23 8.623 12.065 8.56 11.88 8.49 L 11.757 8.444 C 11.643 8.403 11.524 8.365 11.4 8.326 Z M 13.184 10.102 C 13.184 10.102 13.185 10.102 13.185 10.102 Z M 13.184 10.102 C 13.184 10.102 13.185 10.102 13.185 10.102 Z"
        fill="rgb(255, 255, 255)"
    ></path>
    <path
        d="M 14.638 12.365 C 16.842 11.968 18.875 10.731 20.266 8.972 L 21.411 9.878 C 19.804 11.91 17.458 13.34 14.898 13.802 C 13.623 14.032 12.313 14.039 11.034 13.805 C 9.756 13.578 8.53 13.119 7.416 12.452 L 8.168 11.2 C 9.13 11.776 10.188 12.172 11.292 12.368 L 11.294 12.368 L 11.296 12.369 C 12.395 12.571 13.529 12.565 14.638 12.365 M 10.738 22.886 C 11.984 16.526 18.467 13.013 23.768 14.458 L 23.384 15.866 C 18.884 14.64 13.251 17.656 12.171 23.167 Z"
        fill="rgb(255, 255, 255)"
    ></path>
</svg>
